<svg width="677" height="684" viewBox="0 0 677 684" fill="none" xmlns="http://www.w3.org/2000/svg">
<path d="M0 3H621.67C632.716 3 641.67 11.9543 641.67 23V660.955C641.67 672.001 632.716 680.955 621.67 680.955H0" stroke="#FBBC58" stroke-width="5" stroke-dasharray="8 8"/>
<path d="M0 31.646H590.159C601.205 31.646 610.159 40.6003 610.159 51.646V632.309C610.159 643.355 601.205 652.309 590.159 652.309H0V31.646Z" fill="#FBBC58"/>
<g clip-path="url(#clip0)">
<path d="M602.009 676.18C639.93 676.18 670.672 673.693 670.672 670.625C670.672 667.557 639.93 665.07 602.009 665.07C564.087 665.07 533.345 667.557 533.345 670.625C533.345 673.693 564.087 676.18 602.009 676.18Z" fill="#E6E6E6"/>
<path d="M267.519 676.18C305.441 676.18 336.183 673.693 336.183 670.625C336.183 667.557 305.441 665.07 267.519 665.07C229.597 665.07 198.855 667.557 198.855 670.625C198.855 673.693 229.597 676.18 267.519 676.18Z" fill="#E6E6E6"/>
<path d="M572.091 602.99H105.179C103.228 602.988 101.358 602.165 99.9789 600.702C98.5997 599.239 97.8239 597.255 97.8218 595.186V119.659C97.8239 117.59 98.5997 115.606 99.9789 114.143C101.358 112.68 103.228 111.857 105.179 111.855H572.091C574.041 111.857 575.911 112.68 577.291 114.143C578.67 115.606 579.446 117.59 579.448 119.659V595.186C579.446 597.255 578.67 599.239 577.291 600.702C575.911 602.165 574.041 602.988 572.091 602.99ZM105.179 114.976C104.008 114.978 102.886 115.471 102.059 116.349C101.231 117.227 100.766 118.417 100.765 119.659V595.186C100.766 596.427 101.231 597.618 102.059 598.495C102.886 599.373 104.008 599.867 105.179 599.868H572.091C573.261 599.867 574.383 599.373 575.211 598.495C576.038 597.618 576.504 596.427 576.505 595.186V119.659C576.504 118.417 576.038 117.227 575.211 116.349C574.383 115.471 573.261 114.978 572.091 114.976H105.179Z" fill="#E6E6E6"/>
<path d="M132.154 153.476C131.373 153.477 130.625 153.806 130.074 154.392C129.522 154.977 129.212 155.77 129.211 156.598V285.625C129.212 286.453 129.522 287.246 130.074 287.831C130.625 288.416 131.373 288.746 132.154 288.747H253.786C254.566 288.746 255.314 288.416 255.866 287.831C256.418 287.246 256.728 286.453 256.729 285.625V156.598C256.728 155.77 256.418 154.977 255.866 154.392C255.314 153.806 254.566 153.477 253.786 153.476H132.154Z" fill="#E6E6E6"/>
<path d="M323.47 246.866C322.537 246.882 321.648 247.287 320.994 247.992C320.34 248.698 319.973 249.647 319.973 250.637C319.973 251.626 320.34 252.576 320.994 253.282C321.648 253.987 322.537 254.392 323.47 254.408H491.085C491.553 254.418 492.018 254.329 492.453 254.148C492.888 253.966 493.286 253.696 493.622 253.351C493.959 253.006 494.228 252.595 494.414 252.14C494.6 251.685 494.7 251.195 494.708 250.699C494.716 250.203 494.631 249.71 494.459 249.249C494.287 248.787 494.031 248.367 493.705 248.011C493.379 247.655 492.99 247.37 492.561 247.174C492.132 246.977 491.67 246.872 491.202 246.866C491.163 246.865 491.124 246.865 491.085 246.866H323.47Z" fill="#E6E6E6"/>
<path d="M323.47 212.528C322.537 212.544 321.648 212.949 320.994 213.654C320.34 214.36 319.973 215.31 319.973 216.299C319.973 217.289 320.34 218.239 320.994 218.944C321.648 219.649 322.537 220.054 323.47 220.07H371.415C371.882 220.08 372.347 219.991 372.782 219.81C373.218 219.628 373.615 219.358 373.951 219.013C374.288 218.669 374.557 218.257 374.743 217.802C374.93 217.347 375.03 216.857 375.037 216.361C375.045 215.865 374.96 215.372 374.788 214.911C374.616 214.45 374.36 214.029 374.034 213.673C373.708 213.317 373.32 213.032 372.89 212.836C372.461 212.639 371.999 212.535 371.531 212.528C371.492 212.527 371.453 212.527 371.415 212.528H323.47Z" fill="#E6E6E6"/>
<path d="M323.47 282.244C322.537 282.26 321.648 282.665 320.994 283.37C320.34 284.076 319.973 285.026 319.973 286.015C319.973 287.005 320.34 287.955 320.994 288.66C321.648 289.366 322.537 289.77 323.47 289.787H491.085C492.027 289.8 492.935 289.418 493.611 288.722C494.286 288.027 494.675 287.076 494.69 286.077C494.706 285.078 494.347 284.114 493.693 283.395C493.039 282.677 492.143 282.263 491.202 282.244C491.163 282.243 491.124 282.243 491.085 282.244H323.47Z" fill="#E6E6E6"/>
<path d="M522.858 418.515H292.503C288.013 418.515 284.374 415.765 284.369 412.376V359.264C284.374 355.875 288.013 353.125 292.503 353.125H522.858C527.348 353.125 530.987 355.875 530.992 359.264V412.375C530.988 415.764 527.348 418.511 522.858 418.515Z" fill="#E6E6E6"/>
<path d="M366.893 547.542H136.539C132.048 547.542 128.409 544.792 128.404 541.403V488.292C128.409 484.903 132.048 482.153 136.539 482.153H366.893C371.384 482.153 375.023 484.903 375.028 488.292V541.402C375.024 544.791 371.384 547.538 366.893 547.542Z" fill="#E6E6E6"/>
<path d="M297.403 576.8H67.0489C62.5583 576.8 58.9192 574.05 58.9142 570.661V517.549C58.9192 514.16 62.5583 511.41 67.0489 511.41H297.403C301.894 511.41 305.533 514.16 305.538 517.549V570.66C305.534 574.049 301.894 576.796 297.403 576.8ZM67.0489 513.864C64.3544 513.864 62.1708 515.514 62.1679 517.547V570.658C62.1679 572.691 64.3544 574.339 67.0489 574.341H297.403C300.098 574.341 302.281 572.691 302.284 570.658V517.549C302.284 515.516 300.098 513.868 297.403 513.866L67.0489 513.864Z" fill="#3F3D56"/>
<path d="M380.323 431.301C390.616 431.301 398.961 422.449 398.961 411.531C398.961 400.612 390.616 391.76 380.323 391.76C370.03 391.76 361.686 400.612 361.686 411.531C361.686 422.449 370.03 431.301 380.323 431.301Z" fill="#095D6A"/>
<path d="M100.764 563.449C111.057 563.449 119.402 554.598 119.402 543.679C119.402 532.76 111.057 523.909 100.764 523.909C90.4713 523.909 82.1271 532.76 82.1271 543.679C82.1271 554.598 90.4713 563.449 100.764 563.449Z" fill="#095D6A"/>
<path d="M420.58 397.354C419.647 397.37 418.758 397.775 418.104 398.48C417.45 399.186 417.083 400.135 417.083 401.125C417.083 402.115 417.45 403.064 418.104 403.77C418.758 404.476 419.647 404.88 420.58 404.897H553.864C554.805 404.91 555.713 404.528 556.389 403.832C557.065 403.137 557.453 402.185 557.468 401.187C557.484 400.188 557.125 399.224 556.471 398.505C555.817 397.787 554.922 397.372 553.98 397.354C553.941 397.353 553.902 397.353 553.864 397.354H420.58Z" fill="#3F3D56"/>
<path d="M420.58 418.164C419.647 418.181 418.758 418.585 418.104 419.291C417.45 419.996 417.083 420.946 417.083 421.936C417.083 422.925 417.45 423.875 418.104 424.581C418.758 425.286 419.647 425.691 420.58 425.707H553.864C554.805 425.721 555.713 425.338 556.389 424.643C557.065 423.947 557.453 422.996 557.468 421.998C557.484 420.999 557.125 420.035 556.471 419.316C555.817 418.597 554.922 418.183 553.98 418.164C553.941 418.164 553.902 418.164 553.864 418.164H420.58Z" fill="#3F3D56"/>
<path d="M141.021 529.502C140.088 529.519 139.199 529.924 138.545 530.629C137.891 531.334 137.524 532.284 137.524 533.274C137.524 534.263 137.891 535.213 138.545 535.919C139.199 536.624 140.088 537.029 141.021 537.045H274.305C275.246 537.059 276.154 536.676 276.83 535.981C277.506 535.286 277.894 534.334 277.909 533.336C277.925 532.337 277.566 531.373 276.912 530.654C276.259 529.936 275.363 529.521 274.421 529.502C274.382 529.502 274.344 529.502 274.305 529.502H141.021Z" fill="#3F3D56"/>
<path d="M141.021 550.313C140.088 550.33 139.199 550.734 138.545 551.44C137.891 552.145 137.524 553.095 137.524 554.085C137.524 555.074 137.891 556.024 138.545 556.73C139.199 557.435 140.088 557.84 141.021 557.856H274.305C275.246 557.87 276.154 557.487 276.83 556.792C277.506 556.096 277.894 555.145 277.909 554.146C277.925 553.148 277.566 552.184 276.912 551.465C276.259 550.746 275.363 550.332 274.421 550.313C274.382 550.313 274.344 550.313 274.305 550.313H141.021Z" fill="#3F3D56"/>
<path d="M603.944 651.893C627.275 651.893 646.189 631.83 646.189 607.08C646.189 582.33 627.275 562.267 603.944 562.267C580.612 562.267 561.699 582.33 561.699 607.08C561.699 631.83 580.612 651.893 603.944 651.893Z" fill="#2F2E41"/>
<path d="M623.195 642.25H610.361V666.642H623.195V642.25Z" fill="#2F2E41"/>
<path d="M597.527 642.25H584.693V666.642H597.527V642.25Z" fill="#2F2E41"/>
<path d="M612.5 671.18C618.406 671.18 623.195 669.275 623.195 666.925C623.195 664.576 618.406 662.671 612.5 662.671C606.593 662.671 601.805 664.576 601.805 666.925C601.805 669.275 606.593 671.18 612.5 671.18Z" fill="#2F2E41"/>
<path d="M586.832 670.613C592.739 670.613 597.527 668.708 597.527 666.358C597.527 664.008 592.739 662.104 586.832 662.104C580.925 662.104 576.137 664.008 576.137 666.358C576.137 668.708 580.925 670.613 586.832 670.613Z" fill="#2F2E41"/>
<path d="M602.874 611.051C610.848 611.051 617.312 604.193 617.312 595.735C617.312 587.276 610.848 580.419 602.874 580.419C594.9 580.419 588.436 587.276 588.436 595.735C588.436 604.193 594.9 611.051 602.874 611.051Z" fill="white"/>
<path d="M602.874 600.84C605.532 600.84 607.687 598.554 607.687 595.735C607.687 592.915 605.532 590.629 602.874 590.629C600.216 590.629 598.062 592.915 598.062 595.735C598.062 598.554 600.216 600.84 602.874 600.84Z" fill="#3F3D56"/>
<path d="M644.923 565.405C648.334 549.2 637.43 532.825 620.569 528.831C603.707 524.837 587.272 534.736 583.861 550.941C580.45 567.146 591.625 573.123 608.487 577.117C625.349 581.111 641.512 581.61 644.923 565.405Z" fill="#E6E6E6"/>
<path d="M154.038 309.516C154.048 316.387 152.561 323.167 149.692 329.328C149.368 330.035 149.025 330.722 148.662 331.409H74.9273C74.5644 330.722 74.2211 330.035 73.8974 329.328C71.0823 323.273 69.5931 316.622 69.5411 309.871C69.489 303.12 70.8754 296.443 73.5967 290.34C76.318 284.238 80.3039 278.866 85.2568 274.626C90.2096 270.386 96.0014 267.388 102.2 265.856C108.398 264.324 114.842 264.297 121.052 265.777C127.261 267.257 133.075 270.206 138.059 274.404C143.044 278.602 147.07 283.94 149.836 290.02C152.603 296.1 154.039 302.765 154.038 309.516Z" fill="#2F2E41"/>
<path d="M112.865 313.482C120.839 313.482 127.303 306.625 127.303 298.166C127.303 289.707 120.839 282.85 112.865 282.85C104.891 282.85 98.4269 289.707 98.4269 298.166C98.4269 306.625 104.891 313.482 112.865 313.482Z" fill="white"/>
<path d="M112.865 303.271C115.523 303.271 117.678 300.986 117.678 298.166C117.678 295.347 115.523 293.061 112.865 293.061C110.207 293.061 108.052 295.347 108.052 298.166C108.052 300.986 110.207 303.271 112.865 303.271Z" fill="#3F3D56"/>
<path d="M70.8164 267.836C67.4053 251.631 78.3092 235.256 95.171 231.262C112.033 227.268 128.467 237.167 131.878 253.373C135.289 269.578 124.114 275.555 107.253 279.549C90.3909 283.542 74.2275 284.041 70.8164 267.836Z" fill="#095D6A"/>
<path d="M172.371 191.976H50.7381C49.4375 191.977 48.1903 192.525 47.2706 193.501C46.3509 194.476 45.834 195.799 45.8336 197.179V326.206C45.834 327.586 46.3509 328.909 47.2706 329.884C48.1903 330.86 49.4375 331.408 50.7381 331.409H172.371C173.671 331.408 174.919 330.86 175.838 329.884C176.758 328.909 177.275 327.586 177.275 326.206V197.179C177.275 195.799 176.758 194.476 175.838 193.501C174.919 192.525 173.671 191.977 172.371 191.976ZM175.313 326.206C175.311 327.033 175 327.826 174.449 328.411C173.898 328.996 173.15 329.325 172.371 329.328H50.7381C49.9583 329.325 49.2112 328.996 48.6598 328.411C48.1084 327.826 47.7977 327.033 47.7954 326.206V197.179C47.7976 196.352 48.1084 195.559 48.6598 194.974C49.2112 194.389 49.9583 194.06 50.7381 194.057H172.371C173.15 194.06 173.898 194.389 174.449 194.974C175 195.559 175.311 196.352 175.313 197.179V326.206Z" fill="#3F3D56"/>
<path d="M305.878 575.751C310.043 564.191 310.646 553.696 307.225 552.309C303.804 550.922 297.655 559.168 293.49 570.728C289.325 582.287 288.722 592.782 292.142 594.169C295.563 595.556 301.713 587.31 305.878 575.751Z" fill="#2F2E41"/>
<path d="M302.336 614.258C306.073 589.828 290.433 566.81 267.403 562.845C244.373 558.881 222.674 575.471 218.937 599.902C215.2 624.332 230.84 647.35 253.87 651.315C276.9 655.279 298.599 638.688 302.336 614.258Z" fill="#2F2E41"/>
<path d="M254.22 642.25H241.386V666.642H254.22V642.25Z" fill="#2F2E41"/>
<path d="M279.887 642.25H267.053V666.642H279.887V642.25Z" fill="#2F2E41"/>
<path d="M252.081 671.18C257.987 671.18 262.776 669.275 262.776 666.925C262.776 664.576 257.987 662.671 252.081 662.671C246.174 662.671 241.386 664.576 241.386 666.925C241.386 669.275 246.174 671.18 252.081 671.18Z" fill="#2F2E41"/>
<path d="M277.748 670.613C283.655 670.613 288.443 668.708 288.443 666.358C288.443 664.009 283.655 662.104 277.748 662.104C271.842 662.104 267.053 664.009 267.053 666.358C267.053 668.708 271.842 670.613 277.748 670.613Z" fill="#2F2E41"/>
<path d="M219.657 565.405C216.246 549.2 227.15 532.825 244.012 528.831C260.874 524.837 277.308 534.736 280.719 550.941C284.13 567.147 272.955 573.123 256.094 577.117C239.232 581.111 223.069 581.61 219.657 565.405Z" fill="#095D6A"/>
<path d="M232.139 595.888C233.709 592.378 226.436 585.234 215.896 579.931C205.356 574.628 195.539 573.174 193.97 576.684C192.4 580.195 199.673 587.339 210.213 592.642C220.753 597.945 230.57 599.398 232.139 595.888Z" fill="#2F2E41"/>
<path d="M616.691 514.185C639.451 514.185 657.901 494.613 657.901 470.469C657.901 446.326 639.451 426.754 616.691 426.754C593.931 426.754 575.481 446.326 575.481 470.469C575.481 494.613 593.931 514.185 616.691 514.185Z" fill="#2F2E41"/>
<path d="M635.62 504.685L623.101 504.747L623.205 528.541L635.725 528.479L635.62 504.685Z" fill="#2F2E41"/>
<path d="M610.581 504.808L598.062 504.87L598.166 528.664L610.686 528.602L610.581 504.808Z" fill="#2F2E41"/>
<path d="M603.801 534.721C608.777 531.64 611.929 527.538 610.84 525.558C609.751 523.579 604.833 524.471 599.857 527.552C594.88 530.632 591.729 534.735 592.818 536.714C593.907 538.694 598.824 537.801 603.801 534.721Z" fill="#2F2E41"/>
<path d="M628.318 534.6C633.294 531.519 636.446 527.417 635.357 525.437C634.268 523.457 629.351 524.35 624.374 527.431C619.397 530.511 616.246 534.614 617.335 536.593C618.424 538.573 623.341 537.68 628.318 534.6Z" fill="#2F2E41"/>
<path d="M615.599 474.348C623.378 474.348 629.683 467.659 629.683 459.407C629.683 451.156 623.378 444.467 615.599 444.467C607.82 444.467 601.515 451.156 601.515 459.407C601.515 467.659 607.82 474.348 615.599 474.348Z" fill="white"/>
<path d="M610.775 458.048C613.367 458.048 615.469 455.818 615.469 453.067C615.469 450.317 613.367 448.087 610.775 448.087C608.182 448.087 606.08 450.317 606.08 453.067C606.08 455.818 608.182 458.048 610.775 458.048Z" fill="#3F3D56"/>
<path d="M656.488 429.618C659.746 413.794 649.039 397.873 632.573 394.058C616.108 390.243 600.119 399.979 596.86 415.803C593.602 431.628 604.529 437.404 620.994 441.219C637.46 445.034 653.229 445.443 656.488 429.618Z" fill="#095D6A"/>
<path d="M592.634 456.844C594.024 453.353 586.653 446.714 576.171 442.016C565.688 437.317 556.063 436.338 554.673 439.829C553.282 443.32 560.653 449.959 571.136 454.657C581.618 459.356 591.243 460.334 592.634 456.844Z" fill="#2F2E41"/>
<path d="M676.832 493.075C678.222 489.584 670.851 482.945 660.369 478.247C649.886 473.548 640.261 472.57 638.871 476.061C637.48 479.551 644.851 486.19 655.334 490.888C665.816 495.587 675.441 496.566 676.832 493.075Z" fill="#2F2E41"/>
<path d="M625.019 489.519C625.027 490.828 624.792 492.126 624.327 493.338C623.862 494.55 623.176 495.653 622.309 496.584C621.442 497.515 620.41 498.256 619.273 498.764C618.136 499.271 616.916 499.537 615.682 499.544C614.448 499.551 613.226 499.301 612.083 498.806C610.941 498.312 609.901 497.584 609.025 496.663C608.148 495.743 607.45 494.648 606.973 493.441C606.495 492.235 606.246 490.94 606.24 489.632L606.24 489.612C606.216 484.111 610.414 482.951 615.6 482.925C620.786 482.9 624.995 484.018 625.019 489.519Z" fill="white"/>
<path d="M582.786 444.479H352.431C347.941 444.479 344.302 441.729 344.297 438.34V385.229C344.302 381.84 347.941 379.09 352.431 379.09H582.786C587.276 379.09 590.916 381.84 590.921 385.229V438.339C590.917 441.728 587.276 444.475 582.786 444.479ZM352.431 381.543C349.737 381.543 347.553 383.194 347.55 385.227V438.337C347.55 440.37 349.737 442.018 352.431 442.021H582.786C585.48 442.021 587.664 440.37 587.667 438.337V385.229C587.667 383.196 585.48 381.547 582.786 381.545L352.431 381.543Z" fill="#3F3D56"/>
</g>
<defs>
<clipPath id="clip0">
<rect width="631.166" height="564.326" fill="white" transform="translate(45.8336 111.855)"/>
</clipPath>
</defs>
</svg>
