<svg width="22" height="40" viewBox="0 0 22 40" fill="none" xmlns="http://www.w3.org/2000/svg">
<path d="M15.8334 6.66664H20.8334C21.2936 6.66664 21.6667 6.29352 21.6667 5.83328V0.833281C21.6667 0.373125 21.2936 0 20.8334 0H15.8334C10.773 0.00554688 6.67219 4.10633 6.66672 9.16664V15H0.833359C0.373125 15 0 15.3731 0 15.8334V20.8334C0 21.2936 0.373125 21.6667 0.833359 21.6667H6.66672V39.1667C6.66672 39.627 7.03984 40.0001 7.50008 40.0001H12.5001C12.9603 40.0001 13.3334 39.627 13.3334 39.1667V21.6667H19.1668C19.5253 21.6665 19.8435 21.4369 19.9568 21.0967L21.6234 16.0967C21.7689 15.6601 21.5328 15.1882 21.0962 15.0427C21.0115 15.0145 20.9227 15.0001 20.8334 15H13.3334V9.16664C13.3334 7.78594 14.4527 6.66664 15.8334 6.66664Z" fill="#2196F3"/>
</svg>
