<svg width="40" height="40" viewBox="0 0 40 40" fill="none" xmlns="http://www.w3.org/2000/svg">
<path d="M32.8672 35.2109C29.3984 38.1406 24.8985 40 20 40C12.7109 40 6.31242 35.9844 2.84375 30.125L4.14234 24.1389L9.89844 23.0703C11.2344 27.3827 15.2655 30.5469 20 30.5469C22.2968 30.5469 24.4297 29.8203 26.1875 28.5313L31.7187 29.375L32.8672 35.2109Z" fill="#59C36A"/>
<path d="M32.8672 35.2109L31.7187 29.375L26.1875 28.5312C24.4297 29.8203 22.2968 30.5468 20 30.5468V40C24.8985 40 29.3984 38.1406 32.8672 35.2109Z" fill="#00A66C"/>
<path d="M9.45312 20C9.45312 21.078 9.61719 22.1093 9.89844 23.0703L2.84375 30.125C1.08594 27.1719 0 23.703 0 20C0 16.2968 1.08594 12.8281 2.84375 9.875L8.5057 10.8495L9.89844 16.9297C9.61719 17.8905 9.45312 18.9218 9.45312 20Z" fill="#FFDA2D"/>
<path d="M40 20C40 26.0937 37.1798 31.5547 32.8672 35.2109L26.1875 28.5312C27.5468 27.5468 28.6953 26.2343 29.4453 24.6875H20C19.3437 24.6875 18.8281 24.1718 18.8281 23.5156V16.4844C18.8281 15.828 19.3437 15.3125 20 15.3125H38.5C39.0625 15.3125 39.5547 15.7109 39.6484 16.2734C39.8828 17.4922 40 18.7577 40 20Z" fill="#4086F4"/>
<path d="M29.4454 24.6875C28.6954 26.2343 27.5468 27.5468 26.1876 28.5312L32.8672 35.2109C37.1798 31.5547 40 26.0937 40 20C40 18.7577 39.8828 17.4922 39.6484 16.2734C39.5547 15.7109 39.0624 15.3125 38.4999 15.3125H20V24.6875H29.4454Z" fill="#4175DF"/>
<path d="M33.1953 5.58586C33.2188 5.91398 33.0781 6.21875 32.8672 6.45305L27.8516 11.4452C27.4532 11.8671 26.797 11.914 26.3282 11.5624C24.4765 10.1797 22.2968 9.45312 20 9.45312C15.2656 9.45312 11.2344 12.6171 9.89844 16.9297L2.84375 9.875C6.31242 4.01562 12.7109 0 20 0C24.6641 0 29.2109 1.71875 32.7734 4.71867C33.0313 4.92969 33.1719 5.25773 33.1953 5.58586Z" fill="#FF641A"/>
<path d="M26.3281 11.5624C26.7969 11.9141 27.453 11.8671 27.8515 11.4452L32.8671 6.45305C33.0781 6.21875 33.2188 5.91406 33.1952 5.58586C33.1717 5.25766 33.0312 4.92969 32.7734 4.71867C29.2109 1.71875 24.6641 0 20 0V9.45313C22.2968 9.45313 24.4765 10.1797 26.3281 11.5624Z" fill="#F03800"/>
</svg>
