<svg width="1440" height="898" viewBox="0 0 1440 898" fill="none" xmlns="http://www.w3.org/2000/svg">
<path opacity="0.1" d="M664.538 132.09C609.491 114.275 551.29 99.34 491.809 100.879C404.362 103.15 320.284 143.901 278.816 204.129C243.765 255.168 239.086 315.152 223.785 371.905C204.934 441.826 169.15 508.18 130.959 573.071C110.446 607.925 88.8057 643.51 85.2396 681.808C80.3476 734.98 112.565 788.136 163.359 823.767C214.154 859.398 281.743 878.387 349.651 882.822C385.785 885.169 423.549 883.355 455.721 870.34C489.751 856.624 514.638 831.524 548.806 817.961C580.474 805.403 617.385 803.788 652.91 805.632C698.915 807.959 744.479 815.766 788.636 828.888C838.15 843.701 884.159 865.022 933.567 880.048C982.975 895.075 1038.2 903.578 1088.83 891.493C1136.36 880.155 1174.07 852.205 1208.07 823.889C1262.86 778.375 1313.81 728.422 1360.39 674.538C1391.1 638.892 1419.7 601.25 1433.42 559.599C1459.62 479.956 1424.52 389.781 1345.99 334.933C1280.93 289.473 1193.41 269.402 1107.7 257.21C1029.53 245.978 939.099 244.865 867.258 216.26C798.74 188.905 736.409 155.346 664.538 132.09Z" fill="#095D6A"/>
<path opacity="0.1" d="M52.2445 110.629C82.7552 110.629 107.489 85.8951 107.489 55.3844C107.489 24.8737 82.7552 0.139893 52.2445 0.139893C21.7338 0.139893 -3 24.8737 -3 55.3844C-3 85.8951 21.7338 110.629 52.2445 110.629Z" fill="#095D6A"/>
<path opacity="0.1" d="M105.203 383.423C135.714 383.423 160.448 358.689 160.448 328.178C160.448 297.667 135.714 272.933 105.203 272.933C74.6926 272.933 49.9587 297.667 49.9587 328.178C49.9587 358.689 74.6926 383.423 105.203 383.423Z" fill="#095D6A"/>
<path opacity="0.1" d="M1121.58 166.363C1152.09 166.363 1176.82 141.629 1176.82 111.119C1176.82 80.6081 1152.09 55.8743 1121.58 55.8743C1091.07 55.8743 1066.33 80.6081 1066.33 111.119C1066.33 141.629 1091.07 166.363 1121.58 166.363Z" fill="#095D6A"/>
</svg>
