<svg width="624" height="797" viewBox="0 0 624 797" fill="none" xmlns="http://www.w3.org/2000/svg">
<path d="M289.036 508.932C288.054 510.434 287.359 512.104 286.983 513.859C286.671 515.223 286.621 516.635 286.838 518.017C288.907 517.588 290.902 516.857 292.758 515.845C297.035 513.488 300.704 508.879 299.856 504.072C299.685 503.156 299.396 502.265 298.995 501.423C298.363 501.282 297.705 501.309 297.087 501.502C296.468 501.695 295.912 502.047 295.472 502.523C293.006 504.311 290.835 506.474 289.036 508.932Z" fill="#FBBEBE"/>
<path d="M395.857 494.352C397.137 494.352 398.175 493.314 398.175 492.034C398.175 490.754 397.137 489.716 395.857 489.716C394.577 489.716 393.54 490.754 393.54 492.034C393.54 493.314 394.577 494.352 395.857 494.352Z" fill="#3F3D56"/>
<path d="M388.917 512.879C390.453 512.879 391.698 511.634 391.698 510.098C391.698 508.562 390.453 507.317 388.917 507.317C387.381 507.317 386.136 508.562 386.136 510.098C386.136 511.634 387.381 512.879 388.917 512.879Z" fill="#3F3D56"/>
<path d="M399.102 505.463L426.899 492.497" stroke="#3F3D56" stroke-miterlimit="10"/>
<path d="M88.2463 293.454C133.594 293.454 170.355 256.693 170.355 211.345C170.355 165.998 133.594 129.237 88.2463 129.237C42.899 129.237 6.1377 165.998 6.1377 211.345C6.1377 256.693 42.899 293.454 88.2463 293.454Z" fill="#FF6584"/>
<path d="M295.954 604.791C301.978 543.695 282.588 491.773 252.645 488.821C222.701 485.869 193.544 533.004 187.52 594.1C181.497 655.196 200.887 707.117 230.83 710.069C260.773 713.022 289.93 665.887 295.954 604.791Z" fill="#3F3D56"/>
<path d="M228.89 781.013C220.021 648.59 254.316 520.897 254.664 519.624L258.817 520.756C258.471 522.023 224.367 649.045 233.186 780.726L228.89 781.013Z" fill="#095D6A"/>
<path d="M291.815 580.364L240.203 601.754L241.852 605.731L293.464 584.341L291.815 580.364Z" fill="#095D6A"/>
<path d="M191.773 583.768L189.379 587.346L235.813 618.418L238.207 614.84L191.773 583.768Z" fill="#095D6A"/>
<path d="M234.333 426.449C246.115 306.953 208.19 205.4 149.625 199.626C91.0597 193.852 34.032 286.042 22.25 405.539C10.468 525.035 48.3933 626.588 106.958 632.362C165.524 638.136 222.551 545.946 234.333 426.449Z" fill="#E6E6E6"/>
<path d="M105.217 770.982C87.8942 512.319 154.88 262.905 155.559 260.416L159.712 261.548C159.035 264.031 92.2399 512.775 109.513 770.696L105.217 770.982Z" fill="#3F3D56"/>
<path d="M227.028 380.573L126.078 422.41L127.726 426.387L228.676 384.55L227.028 380.573Z" fill="#3F3D56"/>
<path d="M29.4213 387.033L27.0269 390.612L117.846 451.383L120.24 447.805L29.4213 387.033Z" fill="#3F3D56"/>
<path d="M537.393 324.837C553.516 161.315 501.618 22.3491 421.476 14.4474C341.334 6.54561 263.296 132.701 247.173 296.222C231.051 459.744 282.948 598.711 363.09 606.612C443.232 614.514 521.27 488.359 537.393 324.837Z" fill="#FBBC58"/>
<path d="M361.499 796.251C337.803 442.422 429.433 101.247 430.361 97.8427L434.514 98.9746C433.588 102.373 342.148 442.878 365.794 795.965L361.499 796.251Z" fill="#3F3D56"/>
<path d="M527.7 262.791L389.558 320.042L391.207 324.019L529.348 266.769L527.7 262.791Z" fill="#3F3D56"/>
<path d="M256.546 271.559L254.151 275.137L378.43 358.296L380.825 354.718L256.546 271.559Z" fill="#3F3D56"/>
<path d="M607.525 207.766L623.964 194.617C611.193 193.208 605.945 200.173 603.798 205.686C593.821 201.543 582.959 206.973 582.959 206.973L615.852 218.914C614.192 214.482 611.304 210.615 607.525 207.766Z" fill="#3F3D56"/>
<path d="M205.718 157.688L222.157 144.54C209.386 143.131 204.139 150.096 201.991 155.609C192.014 151.466 181.152 156.895 181.152 156.895L214.045 168.837C212.386 164.404 209.497 160.537 205.718 157.688Z" fill="#3F3D56"/>
</svg>
