<svg width="121" height="122" viewBox="0 0 121 122" fill="none" xmlns="http://www.w3.org/2000/svg">
<circle cx="60.5" cy="60.74" r="60.5" fill="#FBBC58" fill-opacity="0.5"/>
<g clip-path="url(#clip0)">
<path d="M93.655 100.513V108.965C93.655 109.917 92.8843 110.688 91.9327 110.688H29.0675C28.1159 110.688 27.3452 109.917 27.3452 108.965V100.513C27.3452 94.0132 31.2096 88.4135 36.7663 85.8881C34.4991 84.0842 31.0434 81.6596 28.5293 76.4433C25.0275 69.1884 25.6269 60.6297 30.088 53.9302C32.5122 50.2918 33.8039 46.0204 33.8039 41.65V32.3214C33.8039 20.4308 43.4425 10.7922 55.3331 10.7922H65.6671C77.5576 10.7922 87.1963 20.4308 87.1963 32.3214C87.1963 42.2005 86.9549 44.1351 88.1457 48.0635C89.826 53.6183 92.0455 54.3055 93.7562 59.9584C96.4454 68.8443 93.4707 78.5353 86.1413 84.3703L84.2338 85.8881C89.7905 88.4135 93.655 94.0132 93.655 100.513Z" fill="#FFDFBA"/>
<path d="M93.6551 100.513V108.965C93.6551 109.916 92.8839 110.688 91.9327 110.688H29.0675C28.1164 110.688 27.3452 109.916 27.3452 108.965V100.513C27.3452 91.6511 34.5293 84.4586 43.3995 84.4586C44.7193 84.4586 45.9723 84.1723 47.0982 83.6599L47.1521 83.7762L59.4459 93.2938C60.0665 93.7743 60.9337 93.7743 61.5546 93.2938L73.8482 83.7762L73.902 83.6599C75.028 84.1723 76.281 84.4586 77.6007 84.4586C86.4365 84.4586 93.6551 91.6169 93.6551 100.513Z" fill="#FFAA64"/>
<path d="M80.1838 42.2804C81.0982 42.3325 81.814 43.0838 81.814 43.9997V54.3092C81.814 63.1942 76.3779 70.8091 68.6489 74.0084C54.6729 79.8098 39.1863 69.5036 39.1863 54.3092V44.1495C39.1863 43.14 40.0509 42.3424 41.0563 42.4335C51.3875 43.3702 61.5611 40.7613 70.1041 35.0061C71.0757 34.3516 72.4135 34.8365 72.7203 35.9672C73.783 39.8842 76.6815 42.0808 80.1838 42.2804Z" fill="#FFEBD2"/>
<path d="M86.1413 84.3703L84.2338 85.8881C82.2122 84.971 79.9667 84.4586 77.6007 84.4586C72.6858 84.4586 68.6812 80.4897 68.6812 75.5584V74.088L68.6489 74.0083C76.3778 70.8091 81.814 63.1942 81.814 54.3092V43.9997C81.814 43.0838 81.0981 42.3325 80.1838 42.2804C76.7029 42.0821 73.7898 39.9094 72.7202 35.9674C72.4135 34.8367 71.0756 34.3518 70.104 35.0063C61.5666 40.7576 51.3937 43.3708 41.0562 42.4337C40.0508 42.3426 39.1862 43.1402 39.1862 44.1497V54.3094C39.1862 63.1945 44.6223 70.8093 52.3513 74.0086L52.319 74.0882V75.5587C52.319 80.4891 48.3154 84.4588 43.3995 84.4588C41.0334 84.4588 38.7879 84.9712 36.7663 85.8884L34.8588 84.3705C25.5989 76.9921 23.5371 63.7682 30.088 53.9305C32.5122 50.292 33.8039 46.0206 33.8039 41.6502V32.3214C33.8039 20.4313 43.4429 10.7922 55.3331 10.7922H65.6671C77.5572 10.7922 87.1962 20.4313 87.1962 32.3214V41.65C87.1962 46.0153 88.488 50.2918 90.9122 53.9302C97.487 63.8039 95.3661 77.0263 86.1413 84.3703Z" fill="#42434D"/>
<path d="M68.9244 77.623C63.6203 79.8434 57.7912 80.0156 52.0757 77.623C52.3676 76.4118 52.319 75.6273 52.319 74.088L52.3513 74.0083C57.5359 76.1604 63.4541 76.1647 68.6488 74.0083L68.6811 74.088C68.6811 75.6279 68.6325 76.4122 68.9244 77.623Z" fill="#FFD6A6"/>
<path d="M75.393 13.1092C77.5915 14.2244 76.6361 17.5802 74.1817 17.3479C73.5051 17.2837 72.8191 17.251 72.1257 17.251H61.7917C49.9016 17.251 40.2625 26.89 40.2625 38.7802V41.3998C40.2625 42.9465 39.1861 42.8965 39.1861 44.1495C39.1861 55.5217 39.2321 54.8017 39.0653 55.2924C37.3763 60.2609 35.3481 60.98 33.7026 66.4172C32.8063 69.3787 32.5415 72.4285 32.852 75.3881C33.1054 77.8037 29.7419 78.9592 28.5291 76.4433C25.0524 69.2403 25.5968 60.6747 30.0878 53.9302C32.512 50.2918 33.8038 46.0204 33.8038 41.65V32.3214C33.8038 20.4313 43.4428 10.7922 55.3329 10.7922H65.6669C69.1669 10.7922 72.4717 11.6274 75.393 13.1092Z" fill="#4D4E59"/>
<path d="M56.4141 68.5872C59.6304 70.7401 57.1791 75.7198 53.5271 74.4381C45.4997 71.6213 39.1863 64.1293 39.1863 54.309V44.1494C39.1863 43.1397 40.0517 42.3431 41.0572 42.4335C41.8822 42.5084 42.7881 42.5674 43.7657 42.5974C45.5352 42.6512 46.9368 44.1124 46.9368 45.8827V50.8646C46.9368 58.3623 50.7595 64.8021 56.4141 68.5872Z" fill="#FFF3E4"/>
<path d="M50.7029 86.5252C51.7246 87.3162 51.1847 88.9748 49.8925 88.9798C40.7786 89.0138 33.804 96.3318 33.804 105.034V110.688H29.0675C28.1164 110.688 27.3452 109.916 27.3452 108.965V100.513C27.3452 91.6509 34.5295 84.4586 43.3995 84.4586C44.7193 84.4586 45.9723 84.1723 47.0982 83.6599L47.1521 83.7762L50.7029 86.5252Z" fill="#FFBD7B"/>
<path d="M70.2973 86.5252C69.2755 87.3162 69.8155 88.9748 71.1076 88.9798C80.2216 89.0138 87.1962 96.3318 87.1962 105.034V110.688H91.9326C92.8838 110.688 93.6549 109.916 93.6549 108.965V100.513C93.6549 91.6509 86.4706 84.4586 77.6006 84.4586C76.2809 84.4586 75.0279 84.1723 73.9019 83.6599L73.8481 83.7762L70.2973 86.5252Z" fill="#FAA157"/>
</g>
<defs>
<clipPath id="clip0">
<rect width="99.8953" height="99.8953" fill="white" transform="translate(10.5522 10.7922)"/>
</clipPath>
</defs>
</svg>
