<svg width="94" height="99" viewBox="0 0 94 99" fill="none" xmlns="http://www.w3.org/2000/svg">
<g filter="url(#filter0_dd)">
<circle cx="47" cy="49.2402" r="37" fill="#032328"/>
</g>
<path d="M53.5554 49.0499C53.5554 52.6429 50.6429 55.5554 47.0499 55.5554C43.457 55.5554 40.5444 52.6429 40.5444 49.0499C40.5444 45.457 43.457 42.5444 47.0499 42.5444C50.6429 42.5444 53.5554 45.457 53.5554 49.0499Z" fill="white"/>
<path d="M62.2143 37.4896C61.9016 36.6422 61.4027 35.8752 60.7544 35.2456C60.1248 34.5973 59.3583 34.0984 58.5104 33.7857C57.8227 33.5186 56.7896 33.2007 54.8868 33.1141C52.8284 33.0202 52.2113 33 47.0003 33C41.7887 33 41.1716 33.0197 39.1137 33.1136C37.2109 33.2007 36.1773 33.5186 35.4902 33.7857C34.6422 34.0984 33.8752 34.5973 33.2461 35.2456C32.5978 35.8752 32.0989 36.6417 31.7857 37.4896C31.5186 38.1773 31.2007 39.2109 31.1141 41.1137C31.0202 43.1716 31 43.7887 31 49.0003C31 54.2113 31.0202 54.8284 31.1141 56.8868C31.2007 58.7896 31.5186 59.8227 31.7857 60.5104C32.0989 61.3583 32.5973 62.1248 33.2456 62.7544C33.8752 63.4027 34.6417 63.9016 35.4896 64.2143C36.1773 64.4819 37.2109 64.7998 39.1137 64.8864C41.1716 64.9803 41.7882 65 46.9997 65C52.2118 65 52.829 64.9803 54.8863 64.8864C56.7891 64.7998 57.8227 64.4819 58.5104 64.2143C60.2125 63.5577 61.5577 62.2125 62.2143 60.5104C62.4814 59.8227 62.7993 58.7896 62.8864 56.8868C62.9803 54.8284 63 54.2113 63 49.0003C63 43.7887 62.9803 43.1716 62.8864 41.1137C62.7998 39.2109 62.4819 38.1773 62.2143 37.4896ZM47.0003 59.0214C41.4651 59.0214 36.9781 54.5349 36.9781 48.9997C36.9781 43.4646 41.4651 38.9781 47.0003 38.9781C52.5349 38.9781 57.0219 43.4646 57.0219 48.9997C57.0219 54.5349 52.5349 59.0214 47.0003 59.0214ZM57.4182 40.9239C56.1247 40.9239 55.0761 39.8753 55.0761 38.5818C55.0761 37.2884 56.1247 36.2398 57.4182 36.2398C58.7116 36.2398 59.7602 37.2884 59.7602 38.5818C59.7597 39.8753 58.7116 40.9239 57.4182 40.9239Z" fill="white"/>
<defs>
<filter id="filter0_dd" x="0" y="0.240234" width="94" height="98" filterUnits="userSpaceOnUse" color-interpolation-filters="sRGB">
<feFlood flood-opacity="0" result="BackgroundImageFix"/>
<feColorMatrix in="SourceAlpha" type="matrix" values="0 0 0 0 0 0 0 0 0 0 0 0 0 0 0 0 0 0 127 0"/>
<feOffset dx="2" dy="4"/>
<feGaussianBlur stdDeviation="4"/>
<feColorMatrix type="matrix" values="0 0 0 0 0 0 0 0 0 0 0 0 0 0 0 0 0 0 0.1 0"/>
<feBlend mode="normal" in2="BackgroundImageFix" result="effect1_dropShadow"/>
<feColorMatrix in="SourceAlpha" type="matrix" values="0 0 0 0 0 0 0 0 0 0 0 0 0 0 0 0 0 0 127 0"/>
<feOffset dx="-2" dy="-4"/>
<feGaussianBlur stdDeviation="4"/>
<feColorMatrix type="matrix" values="0 0 0 0 0.957357 0 0 0 0 0.957357 0 0 0 0 0.957357 0 0 0 0.1 0"/>
<feBlend mode="normal" in2="effect1_dropShadow" result="effect2_dropShadow"/>
<feBlend mode="normal" in="SourceGraphic" in2="effect2_dropShadow" result="shape"/>
</filter>
</defs>
</svg>
