<svg width="80" height="81" viewBox="0 0 80 81" fill="none" xmlns="http://www.w3.org/2000/svg">
<path d="M25.6048 37.1124C23.6345 36.5451 21.6641 36.2573 19.7474 36.2573C16.7877 36.2573 14.318 36.9337 12.403 37.7619C14.2492 31.0032 18.6842 19.3413 27.519 18.028C28.3372 17.9063 29.0077 17.3147 29.2309 16.5183L31.1618 9.61189C31.3246 9.02783 31.2281 8.40264 30.895 7.89578C30.5618 7.38892 30.0264 7.05073 29.4264 6.9685C28.7744 6.87954 28.1098 6.83423 27.451 6.83423C16.8464 6.83423 6.34415 17.9029 1.91248 33.7515C-0.688952 43.0496 -1.45176 57.0285 4.95616 65.8272C8.54195 70.7506 13.7733 73.3798 20.5052 73.6424C20.5329 73.6433 20.5597 73.6441 20.5874 73.6441C28.8936 73.6441 36.259 68.0502 38.4996 60.042C39.838 55.2545 39.233 50.2337 36.7944 45.9011C34.3817 41.6171 30.4083 38.4945 25.6048 37.1124Z" fill="#FBBC58"/>
<path d="M77.599 45.9019C75.1864 41.6171 71.2129 38.4945 66.4095 37.1124C64.4391 36.5451 62.4688 36.2573 60.5529 36.2573C57.5932 36.2573 55.1226 36.9337 53.2076 37.7619C55.0538 31.0032 59.4888 19.3413 68.3245 18.028C69.1427 17.9063 69.8124 17.3147 70.0364 16.5183L71.9673 9.61189C72.1301 9.02783 72.0336 8.40264 71.7005 7.89578C71.3682 7.38892 70.8328 7.05073 70.2319 6.9685C69.5807 6.87954 68.9161 6.83423 68.2565 6.83423C57.6519 6.83423 47.1497 17.9029 42.7171 33.7515C40.1166 43.0496 39.3537 57.0285 45.7625 65.8289C49.3475 70.7515 54.5797 73.3814 61.3107 73.6433C61.3384 73.6441 61.3652 73.645 61.3938 73.645C69.6991 73.645 77.0653 68.051 79.3059 60.0428C80.6427 55.2553 80.0368 50.2337 77.599 45.9019Z" fill="#FBBC58"/>
</svg>
