<svg width="94" height="99" viewBox="0 0 94 99" fill="none" xmlns="http://www.w3.org/2000/svg">
<g filter="url(#filter0_dd)">
<circle cx="47" cy="49.2402" r="37" fill="#032328"/>
</g>
<path d="M38.0305 43H31V65H38.0305V43Z" fill="white"/>
<path d="M57.1806 43.258C57.106 43.234 57.0352 43.208 56.9566 43.186C56.8623 43.164 56.768 43.146 56.6717 43.13C56.2984 43.054 55.8897 43 55.4103 43C51.3114 43 48.7119 46.034 47.8552 47.206V43H40.8247V65H47.8552V53C47.8552 53 53.1683 45.468 55.4103 51C55.4103 55.938 55.4103 65 55.4103 65H62.4387V50.154C62.4387 46.83 60.2007 44.06 57.1806 43.258Z" fill="white"/>
<path d="M34.4386 40C36.3377 40 37.8772 38.433 37.8772 36.5C37.8772 34.567 36.3377 33 34.4386 33C32.5395 33 31 34.567 31 36.5C31 38.433 32.5395 40 34.4386 40Z" fill="white"/>
<defs>
<filter id="filter0_dd" x="0" y="0.240234" width="94" height="98" filterUnits="userSpaceOnUse" color-interpolation-filters="sRGB">
<feFlood flood-opacity="0" result="BackgroundImageFix"/>
<feColorMatrix in="SourceAlpha" type="matrix" values="0 0 0 0 0 0 0 0 0 0 0 0 0 0 0 0 0 0 127 0"/>
<feOffset dx="2" dy="4"/>
<feGaussianBlur stdDeviation="4"/>
<feColorMatrix type="matrix" values="0 0 0 0 0 0 0 0 0 0 0 0 0 0 0 0 0 0 0.1 0"/>
<feBlend mode="normal" in2="BackgroundImageFix" result="effect1_dropShadow"/>
<feColorMatrix in="SourceAlpha" type="matrix" values="0 0 0 0 0 0 0 0 0 0 0 0 0 0 0 0 0 0 127 0"/>
<feOffset dx="-2" dy="-4"/>
<feGaussianBlur stdDeviation="4"/>
<feColorMatrix type="matrix" values="0 0 0 0 0.957357 0 0 0 0 0.957357 0 0 0 0 0.957357 0 0 0 0.1 0"/>
<feBlend mode="normal" in2="effect1_dropShadow" result="effect2_dropShadow"/>
<feBlend mode="normal" in="SourceGraphic" in2="effect2_dropShadow" result="shape"/>
</filter>
</defs>
</svg>
