<svg width="712" height="493" viewBox="0 0 712 493" fill="none" xmlns="http://www.w3.org/2000/svg">
<path opacity="0.1" d="M219.85 48.5308C244.004 27.0056 281.93 22.6346 316.443 24.3296C424.861 29.7207 522.725 82.0545 607.374 141.255C638.018 162.686 668.191 185.78 688.084 215.294C728.576 275.381 716.57 358.61 660.257 408.103C641.102 424.943 617.882 437.852 594.034 449.301C551.658 469.649 505.9 485.98 457.788 490.633C423.472 493.945 388.732 491.253 354.628 486.623C259.314 473.706 165.782 445.103 87.3793 396.23C52.9923 374.783 20.575 348.126 6.40276 313.425C-7.7695 278.724 1.30199 234.795 36.4501 214.235C50.9755 205.744 68.3417 201.907 85.339 198.305C110.364 193 135.789 187.774 158.366 176.999C181.688 165.864 209.311 144.331 204.665 119.714C199.674 93.2527 195.751 70.001 219.85 48.5308Z" fill="#095D6A"/>
<path opacity="0.1" d="M104.392 150.256C118.044 150.256 129.111 139.188 129.111 125.537C129.111 111.885 118.044 100.817 104.392 100.817C90.7403 100.817 79.6732 111.885 79.6732 125.537C79.6732 139.188 90.7403 150.256 104.392 150.256Z" fill="#095D6A"/>
<path opacity="0.1" d="M52.6078 81.9839C61.059 81.9839 67.9101 75.1329 67.9101 66.6816C67.9101 58.2304 61.059 51.3794 52.6078 51.3794C44.1566 51.3794 37.3055 58.2304 37.3055 66.6816C37.3055 75.1329 44.1566 81.9839 52.6078 81.9839Z" fill="#095D6A"/>
<path opacity="0.1" d="M694.111 123.182C699.311 123.182 703.527 118.966 703.527 113.766C703.527 108.565 699.311 104.349 694.111 104.349C688.91 104.349 684.694 108.565 684.694 113.766C684.694 118.966 688.91 123.182 694.111 123.182Z" fill="#095D6A"/>
<path d="M647.209 476.963H86.7911C81.8074 476.963 77.0278 474.983 73.5038 471.459C69.9798 467.935 68 463.156 68 458.172C271.151 434.562 470.485 434.562 666 458.172C666 463.156 664.02 467.935 660.496 471.459C656.972 474.983 652.193 476.963 647.209 476.963Z" fill="#2F2E41"/>
<path d="M666 459.277L68 458.172L137.306 341.556L137.638 341.004V83.9963C137.637 80.8768 138.252 77.7878 139.445 74.9057C140.639 72.0236 142.389 69.4048 144.595 67.199C146.8 64.9932 149.419 63.2434 152.301 62.0498C155.183 60.8561 158.272 60.2419 161.392 60.2421H569.292C572.411 60.2419 575.501 60.8561 578.383 62.0498C581.265 63.2434 583.883 64.9932 586.089 67.199C588.295 69.4048 590.045 72.0236 591.239 74.9057C592.432 77.7878 593.046 80.8768 593.046 83.9963V342.772L666 459.277Z" fill="#3F3D56"/>
<path d="M160.85 76.8226C158.799 76.8249 156.832 77.6408 155.382 79.0914C153.931 80.542 153.115 82.5087 153.113 84.5601V318.897C153.115 320.948 153.931 322.915 155.382 324.365C156.832 325.816 158.799 326.632 160.85 326.634H573.15C575.201 326.632 577.168 325.816 578.618 324.365C580.069 322.914 580.885 320.948 580.887 318.897V84.5601C580.885 82.5087 580.069 80.542 578.618 79.0915C577.168 77.6409 575.201 76.825 573.15 76.8226H160.85Z" fill="white"/>
<path d="M162.578 357.584C161.944 357.585 161.324 357.767 160.79 358.109C160.256 358.451 159.831 358.939 159.565 359.514L138.21 405.939C137.977 406.445 137.876 407 137.914 407.555C137.953 408.11 138.13 408.646 138.43 409.114C138.73 409.582 139.143 409.968 139.631 410.235C140.119 410.502 140.666 410.641 141.222 410.641H590.314C590.879 410.641 591.435 410.497 591.929 410.222C592.423 409.946 592.838 409.549 593.135 409.069C593.432 408.588 593.601 408.039 593.627 407.474C593.652 406.91 593.532 406.348 593.279 405.842L570.067 359.417C569.793 358.865 569.37 358.401 568.846 358.077C568.322 357.753 567.718 357.582 567.102 357.584H162.578Z" fill="#2F2E41"/>
<path d="M365.342 72.9538C368.089 72.9538 370.316 70.7268 370.316 67.9797C370.316 65.2325 368.089 63.0056 365.342 63.0056C362.595 63.0056 360.368 65.2325 360.368 67.9797C360.368 70.7268 362.595 72.9538 365.342 72.9538Z" fill="white"/>
<path d="M321.2 419.484C320.471 419.485 319.763 419.726 319.184 420.169C318.605 420.613 318.189 421.234 317.998 421.938L312.641 441.834C312.509 442.326 312.491 442.841 312.59 443.341C312.689 443.84 312.901 444.31 313.211 444.714C313.521 445.118 313.919 445.445 314.375 445.67C314.832 445.896 315.334 446.013 315.843 446.013H417.717C418.246 446.013 418.767 445.887 419.237 445.644C419.706 445.402 420.112 445.051 420.418 444.62C420.725 444.189 420.924 443.692 420.999 443.168C421.074 442.645 421.023 442.111 420.85 441.612L413.963 421.715C413.737 421.064 413.314 420.499 412.752 420.099C412.191 419.7 411.519 419.485 410.829 419.484H321.2Z" fill="#2F2E41"/>
<path d="M593.046 337.135V341.556H137.306L137.649 341.004V337.135H593.046Z" fill="#2F2E41"/>
<path d="M580.335 154.75C623.068 154.75 657.71 120.108 657.71 77.3752C657.71 34.6421 623.068 0 580.335 0C537.601 0 502.959 34.6421 502.959 77.3752C502.959 120.108 537.601 154.75 580.335 154.75Z" fill="#095D6A"/>
<path d="M612.39 111.089H548.279C547.107 111.088 545.983 110.621 545.154 109.792C544.325 108.964 543.859 107.84 543.858 106.667V67.9797C543.859 66.8074 544.325 65.6835 545.154 64.8546C545.983 64.0257 547.107 63.5595 548.279 63.5582H612.39C613.562 63.5595 614.686 64.0257 615.515 64.8546C616.344 65.6835 616.81 66.8074 616.811 67.9797V106.667C616.81 107.84 616.344 108.964 615.515 109.792C614.686 110.621 613.562 111.088 612.39 111.089ZM548.279 67.9797V106.667H612.393L612.39 67.9797L548.279 67.9797Z" fill="white"/>
<path d="M600.231 67.9797H560.438V50.2939C560.438 37.4841 568.806 28.1867 580.334 28.1867C591.863 28.1867 600.231 37.4841 600.231 50.2939L600.231 67.9797ZM564.859 63.5583H595.81V50.2939C595.81 39.8809 589.446 32.6082 580.335 32.6082C571.223 32.6082 564.859 39.881 564.859 50.2939L564.859 63.5583Z" fill="white"/>
<path d="M580.335 90.6396C582.776 90.6396 584.756 88.66 584.756 86.2181C584.756 83.7762 582.776 81.7967 580.335 81.7967C577.893 81.7967 575.913 83.7762 575.913 86.2181C575.913 88.66 577.893 90.6396 580.335 90.6396Z" fill="white"/>
<path d="M526.32 247.149H207.68C206.116 247.148 204.616 246.525 203.51 245.419C202.403 244.313 201.781 242.813 201.779 241.249V162.208C201.781 160.643 202.403 159.144 203.51 158.037C204.616 156.931 206.116 156.309 207.68 156.307H526.32C527.884 156.309 529.384 156.931 530.49 158.037C531.596 159.144 532.219 160.643 532.221 162.208V241.249C532.219 242.813 531.596 244.313 530.49 245.419C529.384 246.525 527.884 247.148 526.32 247.149ZM207.68 158.667C206.741 158.668 205.841 159.042 205.178 159.705C204.514 160.369 204.141 161.269 204.14 162.208V241.249C204.141 242.187 204.514 243.087 205.178 243.751C205.841 244.415 206.741 244.788 207.68 244.789H526.32C527.259 244.788 528.158 244.415 528.822 243.751C529.486 243.087 529.859 242.187 529.86 241.249V162.208C529.859 161.269 529.486 160.369 528.822 159.705C528.158 159.042 527.259 158.668 526.32 158.667L207.68 158.667Z" fill="#E6E6E6"/>
<path d="M257.19 222.732C270.465 222.732 281.227 211.97 281.227 198.695C281.227 185.42 270.465 174.659 257.19 174.659C243.915 174.659 233.154 185.42 233.154 198.695C233.154 211.97 243.915 222.732 257.19 222.732Z" fill="#E6E6E6"/>
<path d="M312.703 182.671C312.176 182.67 311.655 182.773 311.168 182.974C310.681 183.175 310.239 183.47 309.866 183.842C309.494 184.214 309.198 184.656 308.996 185.143C308.794 185.629 308.691 186.151 308.691 186.677C308.691 187.204 308.794 187.725 308.996 188.212C309.198 188.698 309.494 189.14 309.866 189.512C310.239 189.884 310.681 190.179 311.168 190.38C311.655 190.581 312.176 190.684 312.703 190.683H501.561C502.623 190.683 503.642 190.261 504.393 189.51C505.145 188.759 505.567 187.74 505.567 186.677C505.567 185.615 505.145 184.596 504.393 183.844C503.642 183.093 502.623 182.671 501.561 182.671H312.703Z" fill="#E6E6E6"/>
<path d="M312.703 206.708C311.641 206.708 310.622 207.13 309.87 207.881C309.119 208.632 308.697 209.651 308.697 210.714C308.697 211.776 309.119 212.795 309.87 213.546C310.622 214.298 311.641 214.72 312.703 214.72H393.969C395.032 214.72 396.05 214.298 396.802 213.546C397.553 212.795 397.975 211.776 397.975 210.714C397.975 209.651 397.553 208.632 396.802 207.881C396.05 207.13 395.032 206.708 393.969 206.708H312.703Z" fill="#E6E6E6"/>
</svg>
