<svg width="378" height="276" viewBox="0 0 378 276" fill="none" xmlns="http://www.w3.org/2000/svg">
<path d="M198.522 274.552H195.366L196.418 212.791H197.47L198.522 274.552Z" fill="#E6E6E6"/>
<path d="M201.012 173.852L206.098 165.986C204.589 161.816 202.847 157.736 200.88 153.763L197.591 156.421L200.195 152.393C197.714 147.505 195.761 144.425 195.761 144.425C195.761 144.425 185.562 160.51 182.154 177.541L188.68 187.634L181.455 181.794C181.198 183.778 181.066 185.776 181.059 187.777C181.059 207.947 187.641 224.298 195.761 224.298C203.881 224.298 210.463 207.947 210.463 187.777C210.463 181.524 209.05 174.982 207.1 168.931L201.012 173.852Z" fill="#E6E6E6"/>
<path d="M118.596 274.552H115.441L116.493 212.791H117.544L118.596 274.552Z" fill="#E6E6E6"/>
<path d="M122.269 173.852L127.355 165.986C125.847 161.816 124.105 157.736 122.137 153.763L118.849 156.421L121.453 152.393C118.971 147.505 117.018 144.425 117.018 144.425C117.018 144.425 106.819 160.51 103.411 177.541L109.937 187.634L102.713 181.794C102.455 183.778 102.323 185.776 102.316 187.777C102.316 207.947 108.899 224.298 117.018 224.298C125.138 224.298 131.721 207.947 131.721 187.777C131.721 181.524 130.307 174.982 128.357 168.931L122.269 173.852Z" fill="#E6E6E6"/>
<path d="M157.816 274.361H151.504L153.608 147.33H155.712L157.816 274.361Z" fill="#E6E6E6"/>
<path d="M163.303 67.2377L173.789 51.0193C170.679 42.4224 167.087 34.008 163.031 25.816L156.25 31.2969L161.619 22.9931C156.502 12.9133 152.476 6.5625 152.476 6.5625C152.476 6.5625 131.446 39.7286 124.42 74.8439L137.876 95.6559L122.979 83.6147C122.449 87.7053 122.176 91.8252 122.162 95.95C122.162 137.538 135.734 171.252 152.476 171.252C169.218 171.252 182.79 137.538 182.79 95.95C182.79 83.0572 179.876 69.5686 175.855 57.0911L163.303 67.2377Z" fill="#E6E6E6"/>
<path d="M127.173 58.3911C143.247 58.3911 156.277 45.351 156.277 29.2651C156.277 13.1793 143.247 0.13916 127.173 0.13916C111.1 0.13916 98.0698 13.1793 98.0698 29.2651C98.0698 45.351 111.1 58.3911 127.173 58.3911Z" fill="#E6E6E6"/>
<path d="M377.446 274.186H0V275.139H377.446V274.186Z" fill="#3F3D56"/>
<path d="M339.715 124.53C339.873 124.53 340.029 124.499 340.174 124.438C340.32 124.378 340.452 124.29 340.563 124.178C340.675 124.067 340.763 123.934 340.823 123.789C340.884 123.643 340.915 123.487 340.915 123.329V110.527C340.916 110.335 340.872 110.145 340.784 109.973C340.696 109.802 340.568 109.654 340.411 109.544C340.253 109.433 340.072 109.362 339.881 109.337C339.69 109.312 339.496 109.334 339.316 109.4V94.9243C339.316 94.3989 339.212 93.8787 339.011 93.3933C338.81 92.9079 338.516 92.4669 338.145 92.0954C337.773 91.7239 337.333 91.4292 336.848 91.2281C336.363 91.0271 335.843 90.9236 335.318 90.9236H204.595C204.07 90.9236 203.55 91.0271 203.065 91.2281C202.58 91.4292 202.139 91.7239 201.768 92.0954C201.397 92.4669 201.102 92.9079 200.901 93.3933C200.701 93.8787 200.597 94.3989 200.597 94.9243V270.556C200.597 271.617 201.018 272.635 201.768 273.385C202.518 274.136 203.535 274.557 204.595 274.557H335.318C336.378 274.557 337.395 274.136 338.145 273.385C338.894 272.635 339.316 271.617 339.316 270.556V142.459C339.496 142.526 339.69 142.548 339.881 142.523C340.072 142.498 340.253 142.427 340.411 142.316C340.568 142.205 340.696 142.058 340.784 141.887C340.872 141.715 340.916 141.525 340.915 141.333V128.53C340.916 128.338 340.872 128.148 340.784 127.976C340.696 127.805 340.568 127.658 340.411 127.547C340.253 127.436 340.072 127.365 339.881 127.34C339.69 127.315 339.496 127.337 339.316 127.404V124.456C339.444 124.503 339.579 124.528 339.715 124.53V124.53Z" fill="#3F3D56"/>
<path d="M327.323 98.7249C327.848 98.7249 328.368 98.8283 328.853 99.0294C329.338 99.2304 329.778 99.5251 330.15 99.8966C330.521 100.268 330.815 100.709 331.016 101.195C331.217 101.68 331.321 102.2 331.321 102.726V262.755C331.321 263.816 330.899 264.833 330.15 265.584C329.4 266.334 328.383 266.755 327.323 266.755H212.59C211.53 266.755 210.513 266.334 209.764 265.584C209.014 264.833 208.593 263.816 208.593 262.755V102.726C208.593 101.665 209.014 100.647 209.764 99.8966C210.513 99.1464 211.53 98.7249 212.59 98.7249H327.323Z" fill="white"/>
<path d="M269.956 96.5244C270.84 96.5244 271.556 95.808 271.556 94.9241C271.556 94.0403 270.84 93.3239 269.956 93.3239C269.073 93.3239 268.357 94.0403 268.357 94.9241C268.357 95.808 269.073 96.5244 269.956 96.5244Z" fill="white"/>
<path d="M317.432 119.718H219.173V129.49H317.432V119.718Z" fill="#095D6A"/>
<path d="M317.432 142.737H219.173V146.438H317.432V142.737Z" fill="#E6E6E6"/>
<path d="M317.432 154.034H219.173V157.735H317.432V154.034Z" fill="#E6E6E6"/>
<path d="M269.944 165.474H219.173V169.176H269.944V165.474Z" fill="#E6E6E6"/>
<path d="M317.432 177.118H219.173V180.819H317.432V177.118Z" fill="#E6E6E6"/>
<path d="M317.432 188.761H219.173V192.463H317.432V188.761Z" fill="#E6E6E6"/>
<path d="M268.243 200.405H219.173V204.106H268.243V200.405Z" fill="#E6E6E6"/>
<path d="M317.432 212.049H219.173V215.75H317.432V212.049Z" fill="#E6E6E6"/>
<path d="M317.432 223.692H219.173V227.393H317.432V223.692Z" fill="#E6E6E6"/>
<path d="M317.55 237.973H286.521V248.182H317.55V237.973Z" fill="#095D6A"/>
<path d="M113.891 155.863H113.192V132.563C113.192 128.971 111.766 125.526 109.228 122.986C106.69 120.446 103.248 119.019 99.6589 119.019H50.065C48.2878 119.019 46.528 119.369 44.8861 120.05C43.2441 120.731 41.7522 121.728 40.4955 122.986C39.2389 124.244 38.242 125.737 37.5619 127.38C36.8818 129.023 36.5317 130.784 36.5317 132.563V261.013C36.5317 262.792 36.8818 264.553 37.5619 266.196C38.242 267.839 39.2389 269.333 40.4955 270.59C41.7522 271.848 43.2441 272.845 44.8861 273.526C46.528 274.207 48.2878 274.557 50.065 274.557H99.6589C103.248 274.557 106.69 273.13 109.228 270.59C111.766 268.05 113.192 264.605 113.192 261.013V172.42H113.891V155.863Z" fill="#3F3D56"/>
<path d="M110.163 131.634V260.711C110.163 263.394 109.098 265.966 107.203 267.863C105.307 269.76 102.736 270.826 100.056 270.826H50.3667C47.6862 270.826 45.1154 269.76 43.22 267.863C41.3246 265.966 40.2598 263.394 40.2598 260.711V131.634C40.2598 129.216 41.2196 126.897 42.928 125.187C44.6364 123.477 46.9535 122.517 49.3696 122.517H56.385C56.1201 123.18 56.0021 123.893 56.0392 124.606C56.0763 125.319 56.2677 126.016 56.6 126.648C57.0045 127.346 57.5775 127.931 58.2664 128.35C58.9554 128.769 59.7383 129.008 60.5436 129.046H89.4529C90.2582 129.008 91.0412 128.769 91.7302 128.35C92.4192 127.931 92.9921 127.345 93.3966 126.647C93.7288 126.015 93.9201 125.319 93.9571 124.606C93.9942 123.893 93.8762 123.18 93.6113 122.517H101.053C103.469 122.517 105.786 123.477 107.495 125.187C109.203 126.897 110.163 129.216 110.163 131.634V131.634Z" fill="white"/>
<path d="M102.35 159.099H47.8774V164.516H102.35V159.099Z" fill="#095D6A"/>
<path d="M102.35 171.86H47.8774V173.912H102.35V171.86Z" fill="#E6E6E6"/>
<path d="M102.35 178.123H47.8774V180.175H102.35V178.123Z" fill="#E6E6E6"/>
<path d="M76.0232 184.465H47.8774V186.517H76.0232V184.465Z" fill="#E6E6E6"/>
<path d="M102.35 190.92H47.8774V192.972H102.35V190.92Z" fill="#E6E6E6"/>
<path d="M102.35 197.375H47.8774V199.427H102.35V197.375Z" fill="#E6E6E6"/>
<path d="M75.0806 203.83H47.8774V205.882H75.0806V203.83Z" fill="#E6E6E6"/>
<path d="M102.35 210.285H47.8774V212.337H102.35V210.285Z" fill="#E6E6E6"/>
<path d="M102.35 216.739H47.8774V218.791H102.35V216.739Z" fill="#E6E6E6"/>
<path d="M102.415 224.657H85.2131V230.317H102.415V224.657Z" fill="#095D6A"/>
</svg>
