<svg width="398" height="207" viewBox="0 0 398 207" fill="none" xmlns="http://www.w3.org/2000/svg">
<g clip-path="url(#clip0)">
<g opacity="0.7">
<path opacity="0.7" d="M302.528 0.13916H95.0631C93.2851 0.145679 91.5824 0.859119 90.3293 2.12264C89.0763 3.38616 88.3754 5.09634 88.3809 6.87725V149.895C88.3754 151.676 89.0763 153.387 90.3293 154.65C91.5824 155.914 93.2851 156.627 95.0631 156.634H166.417V181.321H163.164C162.717 181.322 162.275 181.412 161.863 181.585C161.451 181.757 161.077 182.01 160.763 182.327C160.448 182.644 160.199 183.021 160.03 183.435C159.86 183.848 159.774 184.292 159.775 184.739V189.692H166.417V192.622H231.174V189.692H237.815V184.739C237.817 184.292 237.731 183.848 237.561 183.435C237.392 183.021 237.143 182.644 236.828 182.327C236.513 182.01 236.139 181.757 235.727 181.585C235.315 181.412 234.874 181.322 234.427 181.321H231.367V181.107H231.158V156.634H302.528C304.306 156.627 306.008 155.914 307.261 154.65C308.514 153.387 309.215 151.676 309.21 149.895V6.87725C309.215 5.09634 308.514 3.38616 307.261 2.12264C306.008 0.859119 304.306 0.145679 302.528 0.13916Z" fill="url(#paint0_linear)"/>
</g>
<path d="M230.957 152.382H167.043V190.135H230.957V152.382Z" fill="#BDBDBD"/>
<g opacity="0.1">
<path opacity="0.1" d="M168.301 156.075H229.826C230.567 152.846 231.161 150.741 231.161 150.741H166.838C166.838 150.741 167.498 152.838 168.301 156.075Z" fill="black"/>
</g>
<path d="M96.6157 1.37024H301.384C303.134 1.37024 304.812 2.06631 306.049 3.30532C307.286 4.54433 307.981 6.22479 307.981 7.97701V134.326H90.0195V7.97701C90.0195 6.22479 90.7145 4.54433 91.9515 3.30532C93.1885 2.06631 94.8663 1.37024 96.6157 1.37024V1.37024Z" fill="#535461"/>
<path d="M301.384 154.844H96.6157C94.8663 154.844 93.1885 154.148 91.9515 152.909C90.7145 151.67 90.0195 149.99 90.0195 148.238V134.326H307.981V148.238C307.981 149.99 307.286 151.67 306.049 152.909C304.812 154.148 303.134 154.844 301.384 154.844V154.844Z" fill="#BDBDBD"/>
<path d="M199 148.279C201.036 148.279 202.687 146.625 202.687 144.585C202.687 142.546 201.036 140.892 199 140.892C196.963 140.892 195.312 142.546 195.312 144.585C195.312 146.625 196.963 148.279 199 148.279Z" fill="#535461"/>
<path d="M163.836 179.055H234.165C235.053 179.055 235.904 179.409 236.532 180.037C237.159 180.666 237.512 181.519 237.512 182.408V187.263H160.488V182.408C160.488 181.968 160.575 181.532 160.743 181.125C160.911 180.718 161.158 180.349 161.469 180.037C161.779 179.726 162.148 179.479 162.555 179.311C162.961 179.142 163.396 179.055 163.836 179.055V179.055Z" fill="#BDBDBD"/>
<g opacity="0.5">
<path opacity="0.5" d="M264.757 29.3239H133.243C132.225 29.3239 131.399 30.1506 131.399 31.1705V104.526C131.399 105.546 132.225 106.373 133.243 106.373H264.757C265.775 106.373 266.601 105.546 266.601 104.526V31.1705C266.601 30.1506 265.775 29.3239 264.757 29.3239Z" fill="url(#paint1_linear)"/>
</g>
<path d="M263.024 29.8901H134.976C133.958 29.8901 133.132 30.7169 133.132 31.7368V103.533C133.132 104.553 133.958 105.38 134.976 105.38H263.024C264.042 105.38 264.868 104.553 264.868 103.533V31.7368C264.868 30.7169 264.042 29.8901 263.024 29.8901Z" fill="white"/>
<g opacity="0.5">
<path opacity="0.5" d="M182.505 40.7277H171.673C170.655 40.7277 169.829 41.5544 169.829 42.5743V51.9715C169.829 52.9913 170.655 53.8181 171.673 53.8181H182.505C183.523 53.8181 184.349 52.9913 184.349 51.9715V42.5743C184.349 41.5544 183.523 40.7277 182.505 40.7277Z" fill="#095D6A"/>
</g>
<path d="M227.183 40.7277H189.429C189.029 40.7277 188.704 41.0529 188.704 41.454C188.704 41.8551 189.029 42.1803 189.429 42.1803H227.183C227.584 42.1803 227.908 41.8551 227.908 41.454C227.908 41.0529 227.584 40.7277 227.183 40.7277Z" fill="#E0E0E0"/>
<path d="M220.567 45.0939H189.429C189.029 45.0939 188.704 45.4191 188.704 45.8202C188.704 46.2213 189.029 46.5465 189.429 46.5465H220.567C220.967 46.5465 221.292 46.2213 221.292 45.8202C221.292 45.4191 220.967 45.0939 220.567 45.0939Z" fill="#E0E0E0"/>
<g opacity="0.5">
<path opacity="0.5" d="M182.505 61.0897H171.673C170.655 61.0897 169.829 61.9165 169.829 62.9363V72.3335C169.829 73.3534 170.655 74.1802 171.673 74.1802H182.505C183.523 74.1802 184.349 73.3534 184.349 72.3335V62.9363C184.349 61.9165 183.523 61.0897 182.505 61.0897Z" fill="#095D6A"/>
</g>
<path d="M227.183 61.0897H189.429C189.029 61.0897 188.704 61.4149 188.704 61.8161C188.704 62.2172 189.029 62.5424 189.429 62.5424H227.183C227.584 62.5424 227.908 62.2172 227.908 61.8161C227.908 61.4149 227.584 61.0897 227.183 61.0897Z" fill="#E0E0E0"/>
<path d="M227.183 65.4518H189.429C189.029 65.4518 188.704 65.777 188.704 66.1781C188.704 66.5793 189.029 66.9044 189.429 66.9044H227.183C227.584 66.9044 227.908 66.5793 227.908 66.1781C227.908 65.777 227.584 65.4518 227.183 65.4518Z" fill="#E0E0E0"/>
<g opacity="0.5">
<path opacity="0.5" d="M182.505 81.4517H171.673C170.655 81.4517 169.829 82.2784 169.829 83.2983V92.6955C169.829 93.7153 170.655 94.5421 171.673 94.5421H182.505C183.523 94.5421 184.349 93.7153 184.349 92.6955V83.2983C184.349 82.2784 183.523 81.4517 182.505 81.4517Z" fill="#095D6A"/>
</g>
<path d="M227.183 81.4517H189.429C189.029 81.4517 188.704 81.7769 188.704 82.178C188.704 82.5791 189.029 82.9043 189.429 82.9043H227.183C227.584 82.9043 227.908 82.5791 227.908 82.178C227.908 81.7769 227.584 81.4517 227.183 81.4517Z" fill="#E0E0E0"/>
<path d="M227.519 85.8137H189.356C188.996 85.8137 188.704 86.1058 188.704 86.4662V86.6139C188.704 86.9743 188.996 87.2664 189.356 87.2664H227.519C227.879 87.2664 228.171 86.9743 228.171 86.6139V86.4662C228.171 86.1058 227.879 85.8137 227.519 85.8137Z" fill="#E0E0E0"/>
<path d="M199 17.3742V8.34631" stroke="#095D6A" stroke-width="2" stroke-miterlimit="10"/>
<path d="M199 32.5575V20.7104" stroke="#095D6A" stroke-width="2" stroke-miterlimit="10"/>
<path d="M199 34.1989C199.905 34.1989 200.639 33.464 200.639 32.5574C200.639 31.6509 199.905 30.916 199 30.916C198.095 30.916 197.361 31.6509 197.361 32.5574C197.361 33.464 198.095 34.1989 199 34.1989Z" fill="#095D6A"/>
<path d="M199 20.6571C199.905 20.6571 200.639 19.9222 200.639 19.0157C200.639 18.1092 199.905 17.3743 199 17.3743C198.095 17.3743 197.361 18.1092 197.361 19.0157C197.361 19.9222 198.095 20.6571 199 20.6571Z" stroke="white" stroke-miterlimit="10"/>
<path d="M199 17.3742V8.34631" stroke="#095D6A" stroke-width="2" stroke-miterlimit="10"/>
<path d="M199 32.5575V20.7104" stroke="#095D6A" stroke-width="2" stroke-miterlimit="10"/>
<path d="M199 34.1989C199.905 34.1989 200.639 33.464 200.639 32.5574C200.639 31.6509 199.905 30.916 199 30.916C198.095 30.916 197.361 31.6509 197.361 32.5574C197.361 33.464 198.095 34.1989 199 34.1989Z" fill="#095D6A"/>
<path d="M199 20.6571C199.905 20.6571 200.639 19.9222 200.639 19.0157C200.639 18.1092 199.905 17.3743 199 17.3743C198.095 17.3743 197.361 18.1092 197.361 19.0157C197.361 19.9222 198.095 20.6571 199 20.6571Z" stroke="white" stroke-miterlimit="10"/>
<path d="M199 114.629V127.35" stroke="#095D6A" stroke-width="2" stroke-miterlimit="10"/>
<path d="M199 103.139V114.986" stroke="#095D6A" stroke-width="2" stroke-miterlimit="10"/>
<path d="M199 104.781C199.905 104.781 200.639 104.046 200.639 103.139C200.639 102.233 199.905 101.498 199 101.498C198.095 101.498 197.361 102.233 197.361 103.139C197.361 104.046 198.095 104.781 199 104.781Z" fill="#095D6A"/>
<path d="M125.254 69.2845H112.348" stroke="#095D6A" stroke-width="2" stroke-miterlimit="10"/>
<path d="M136.52 69.2845H124.692" stroke="#095D6A" stroke-width="2" stroke-miterlimit="10"/>
<path d="M136.521 70.9261C137.426 70.9261 138.159 70.1912 138.159 69.2846C138.159 68.3781 137.426 67.6432 136.521 67.6432C135.616 67.6432 134.882 68.3781 134.882 69.2846C134.882 70.1912 135.616 70.9261 136.521 70.9261Z" fill="#095D6A"/>
<g opacity="0.1">
<path opacity="0.1" d="M231.161 178.85H167.248V180.081H231.161V178.85Z" fill="black"/>
</g>
<g opacity="0.7">
<path opacity="0.7" d="M73.4185 150.765H43.7561L44.1658 147.425C52.5483 139.887 57.9687 119.804 57.9687 119.804C57.8484 119.821 57.7293 119.845 57.6122 119.878C52.6958 120.871 49.197 122.894 46.751 125.327L47.7917 116.439C63.2784 113.098 69.4198 92.5805 69.4198 92.5805C59.5378 94.776 53.3759 98.1737 49.5493 101.399L51.0734 88.3415C61.5454 91.9404 72.3779 72.8218 72.3779 72.8218L71.9682 72.7356L72.173 72.6043L71.8616 72.7151C60.2876 70.216 54.1011 76.8433 52.0935 79.5968L52.2451 78.3165C51.9392 79.1372 51.6415 79.9415 51.352 80.7294V80.7622C50.5326 82.9864 49.7828 85.1832 49.1027 87.3526C48.51 89.2047 47.9556 91.0376 47.4393 92.8514V92.8268C47.4393 92.8268 46.96 81.148 34.6649 78.0744C34.6649 78.0744 35.9554 103.545 45.6981 99.3761C44.7968 103.069 44.0593 106.623 43.4202 110.074C43.0132 112.32 42.6581 114.509 42.355 116.64L42.2976 116.706L42.355 116.656L42.3304 116.825C42.0572 118.759 41.8251 120.644 41.6339 122.479C41.8223 118.942 41.1791 108.724 29.1585 99.1217C29.1585 99.1217 13.1801 127.248 40.4253 132.771C40.4867 132.824 40.5482 132.878 40.6055 132.927L40.5646 132.8L40.8104 132.853L40.921 131.409C40.5926 137.437 40.624 143.48 41.0152 149.505V149.505C41.0439 149.916 41.0726 150.326 41.1013 150.716H11.0989C-0.348191 174.431 17.4574 187.427 17.4574 187.427H66.6216C85.7136 163.322 73.4185 150.765 73.4185 150.765Z" fill="url(#paint2_linear)"/>
</g>
<path opacity="0.6" d="M42.0845 159.769C42.0845 159.769 34.3001 125.709 51.5076 81.8005" stroke="#535461" stroke-width="3" stroke-miterlimit="10"/>
<path d="M11.7665 149.51H71.9925C71.9925 149.51 83.8739 164.693 65.4373 187.263H17.912C17.912 187.263 0.704545 171.669 11.7665 149.51Z" fill="#095D6A"/>
<path d="M50.6433 84.0576C50.6433 84.0576 56.6291 73.3882 70.9686 76.6711C70.9686 76.6711 59.116 96.8854 48.4351 90.2663L50.6433 84.0576Z" fill="#4DB6AC"/>
<path d="M46.8492 95.3793C46.8492 95.3793 46.3862 84.4678 34.5049 81.5953C34.5049 81.5953 35.734 105.396 45.1571 101.498L46.8492 95.3793Z" fill="#4DB6AC"/>
<path d="M42.9652 111.494C42.9652 111.494 45.1571 100.062 68.1004 95.1372C68.1004 95.1372 60.7831 118.782 41.9082 117.834L42.9652 111.494Z" fill="#4DB6AC"/>
<path d="M41.1054 124.326C41.1054 124.326 43.5186 112.372 29.179 101.293C29.179 101.293 13.6104 127.83 40.4376 132.82L41.1054 124.326Z" fill="#4DB6AC"/>
<path d="M40.6751 140.757C40.6751 140.757 39.0118 123.862 57.0386 120.579C57.0386 120.579 50.4547 144.171 40.6506 148.377L40.6751 140.757Z" fill="#4DB6AC"/>
<path opacity="0.3" d="M48.6396 90.418C48.6396 90.418 64.2083 78.5176 70.7635 76.4658" stroke="#535461" stroke-miterlimit="10"/>
<path opacity="0.3" d="M41.8799 117.707C41.8799 117.707 60.7261 97.5994 68.1007 95.1372" stroke="#535461" stroke-miterlimit="10"/>
<path opacity="0.3" d="M34.5049 81.5953C34.5049 81.5953 45.9765 97.189 45.1571 101.293" stroke="#535461" stroke-miterlimit="10"/>
<path opacity="0.3" d="M29.1787 101.293C29.1787 101.293 35.3242 129.197 40.2406 132.89" stroke="#535461" stroke-miterlimit="10"/>
<path opacity="0.3" d="M40.6504 148.484C40.6504 148.484 50.4832 121.4 57.0384 120.579" stroke="#535461" stroke-miterlimit="10"/>
<g opacity="0.1">
<path opacity="0.1" d="M71.9927 149.51H11.7666C11.6314 149.785 11.5003 150.06 11.3569 150.33H69.9442C69.9442 150.33 81.5346 165.149 64.0445 187.263H65.4375C83.874 164.693 71.9927 149.51 71.9927 149.51Z" fill="black"/>
</g>
<path d="M398 187.099H0V200.612H398V187.099Z" fill="#E0E0E0"/>
<path d="M381.133 200.612H16.8633V206.139H381.133V200.612Z" fill="#E0E0E0"/>
<path opacity="0.1" d="M381.133 200.612H16.8633V202.454H381.133V200.612Z" fill="black"/>
<path d="M282.784 69.2845H285.242" stroke="#095D6A" stroke-width="2" stroke-miterlimit="10"/>
<path d="M261.07 69.2845H279.457" stroke="#095D6A" stroke-width="2" stroke-miterlimit="10"/>
<path d="M261.069 70.9261C261.975 70.9261 262.708 70.1912 262.708 69.2846C262.708 68.3781 261.975 67.6432 261.069 67.6432C260.164 67.6432 259.431 68.3781 259.431 69.2846C259.431 70.1912 260.164 70.9261 261.069 70.9261Z" fill="#095D6A"/>
<path d="M281.145 70.9261C282.05 70.9261 282.784 70.1912 282.784 69.2846C282.784 68.3781 282.05 67.6432 281.145 67.6432C280.24 67.6432 279.506 68.3781 279.506 69.2846C279.506 70.1912 280.24 70.9261 281.145 70.9261Z" stroke="white" stroke-miterlimit="10"/>
<g opacity="0.7">
<path opacity="0.7" d="M373.943 182.699L373.984 182.638C374.068 182.507 374.151 182.37 374.233 182.228L374.278 182.15C374.358 182.016 374.433 181.879 374.504 181.739L374.541 181.669C374.623 181.509 374.7 181.349 374.77 181.181C374.918 180.845 375.046 180.501 375.155 180.151L375.196 180.016C375.233 179.889 375.27 179.761 375.303 179.634L375.344 179.454C375.371 179.339 375.396 179.222 375.417 179.105C375.417 179.039 375.442 178.973 375.454 178.908C375.467 178.842 375.491 178.678 375.508 178.559C375.524 178.44 375.508 178.424 375.532 178.358C375.557 178.292 375.557 178.108 375.565 177.98C375.565 177.923 375.565 177.861 375.565 177.804C375.565 177.619 375.565 177.43 375.565 177.246V143.354H369.891V126.743H362.926V143.354H358.124V119.496H351.159V143.354H348.541V116.086H341.576V143.354H335.431V177.25C335.431 182.782 340.023 187.263 345.673 187.263H365.339C366.947 187.269 368.534 186.899 369.973 186.182C371.413 185.466 372.666 184.422 373.631 183.134V183.134C373.732 182.989 373.836 182.844 373.943 182.699Z" fill="url(#paint3_linear)"/>
</g>
<path d="M348.951 131.864H342.396V172.9H348.951V131.864Z" fill="#535461"/>
<path d="M348.951 118.322H342.396V131.864H348.951V118.322Z" fill="#3AD29F"/>
<path d="M357.964 135.147H351.409V176.183H357.964V135.147Z" fill="#535461"/>
<path d="M357.964 121.605H351.409V135.147H357.964V121.605Z" fill="#4D8AF0"/>
<path d="M369.026 142.123H362.471V183.159H369.026V142.123Z" fill="#535461"/>
<path d="M369.026 128.581H362.471V142.123H369.026V128.581Z" fill="#F55F44"/>
<path d="M336.66 144.585H374.352V177.209C374.352 179.767 373.338 182.219 371.532 184.028C369.727 185.836 367.278 186.852 364.724 186.852H346.288C343.734 186.852 341.285 185.836 339.48 184.028C337.674 182.219 336.66 179.767 336.66 177.209V144.585Z" fill="#095D6A"/>
<g opacity="0.1">
<path opacity="0.1" d="M336.66 144.585V146.227H372.713V178.85C372.717 181.007 371.995 183.101 370.665 184.796C371.815 183.895 372.744 182.744 373.383 181.429C374.022 180.114 374.354 178.671 374.352 177.209V144.585H336.66Z" fill="black"/>
</g>
</g>
<defs>
<linearGradient id="paint0_linear" x1="198.795" y1="192.618" x2="198.795" y2="0.13916" gradientUnits="userSpaceOnUse">
<stop stop-color="#808080" stop-opacity="0.25"/>
<stop offset="0.54" stop-color="#808080" stop-opacity="0.12"/>
<stop offset="1" stop-color="#808080" stop-opacity="0.1"/>
</linearGradient>
<linearGradient id="paint1_linear" x1="65801.4" y1="19975.8" x2="65801.4" y2="5509.04" gradientUnits="userSpaceOnUse">
<stop stop-color="#808080" stop-opacity="0.25"/>
<stop offset="0.54" stop-color="#808080" stop-opacity="0.12"/>
<stop offset="1" stop-color="#808080" stop-opacity="0.1"/>
</linearGradient>
<linearGradient id="paint2_linear" x1="9254.39" y1="59433.3" x2="21233.6" y2="59433.3" gradientUnits="userSpaceOnUse">
<stop stop-color="#808080" stop-opacity="0.25"/>
<stop offset="0.54" stop-color="#808080" stop-opacity="0.12"/>
<stop offset="1" stop-color="#808080" stop-opacity="0.1"/>
</linearGradient>
<linearGradient id="paint3_linear" x1="37780.7" y1="40564.4" x2="41713.9" y2="40564.4" gradientUnits="userSpaceOnUse">
<stop stop-color="#808080" stop-opacity="0.25"/>
<stop offset="0.54" stop-color="#808080" stop-opacity="0.12"/>
<stop offset="1" stop-color="#808080" stop-opacity="0.1"/>
</linearGradient>
<clipPath id="clip0">
<rect width="398" height="206" fill="white" transform="translate(0 0.13916)"/>
</clipPath>
</defs>
</svg>
