<svg width="274" height="246" viewBox="0 0 274 246" fill="none" xmlns="http://www.w3.org/2000/svg">
<g clip-path="url(#clip0)">
<path d="M241.445 245.139C257.907 245.139 271.253 244.059 271.253 242.727C271.253 241.395 257.907 240.315 241.445 240.315C224.982 240.315 211.637 241.395 211.637 242.727C211.637 244.059 224.982 245.139 241.445 245.139Z" fill="#E6E6E6"/>
<path d="M96.2372 245.139C112.7 245.139 126.045 244.059 126.045 242.727C126.045 241.395 112.7 240.315 96.2372 240.315C79.7747 240.315 66.4292 241.395 66.4292 242.727C66.4292 244.059 79.7747 245.139 96.2372 245.139Z" fill="#E6E6E6"/>
<path d="M228.457 213.364H25.7626C24.9158 213.363 24.104 213.005 23.5053 212.37C22.9065 211.735 22.5698 210.874 22.5688 209.976V3.52726C22.5698 2.62898 22.9065 1.76778 23.5053 1.1326C24.104 0.497415 24.9158 0.140141 25.7626 0.13916H228.457C229.304 0.140141 230.116 0.497415 230.714 1.1326C231.313 1.76778 231.65 2.62898 231.651 3.52726V209.976C231.65 210.874 231.313 211.735 230.714 212.37C230.116 213.005 229.304 213.363 228.457 213.364ZM25.7626 1.4944C25.2545 1.49499 24.7674 1.70935 24.4082 2.09046C24.049 2.47157 23.8469 2.98829 23.8463 3.52726V209.976C23.8469 210.515 24.049 211.031 24.4082 211.412C24.7674 211.794 25.2545 212.008 25.7626 212.009H228.457C228.965 212.008 229.452 211.794 229.811 211.412C230.171 211.031 230.373 210.515 230.373 209.976V3.52726C230.373 2.98829 230.171 2.47157 229.811 2.09046C229.452 1.70935 228.965 1.49499 228.457 1.4944H25.7626Z" fill="#E6E6E6"/>
<path d="M37.4728 18.209C37.1341 18.2094 36.8094 18.3523 36.5699 18.6064C36.3304 18.8604 36.1957 19.2049 36.1953 19.5642V75.5808C36.1957 75.9401 36.3304 76.2846 36.5699 76.5387C36.8094 76.7928 37.1341 76.9357 37.4728 76.9361H90.2756C90.6143 76.9357 90.939 76.7928 91.1785 76.5387C91.418 76.2846 91.5527 75.9401 91.553 75.5808V19.5642C91.5527 19.2049 91.418 18.8604 91.1785 18.6064C90.939 18.3523 90.6143 18.2094 90.2756 18.209H37.4728Z" fill="#E6E6E6"/>
<path d="M120.527 58.7535C120.122 58.7607 119.736 58.9363 119.452 59.2426C119.168 59.5489 119.009 59.9613 119.009 60.3909C119.009 60.8205 119.168 61.2329 119.452 61.5392C119.736 61.8455 120.122 62.0211 120.527 62.0282H193.292C193.495 62.0323 193.696 61.9939 193.885 61.9151C194.074 61.8363 194.247 61.7188 194.393 61.5692C194.539 61.4196 194.656 61.2409 194.737 61.0433C194.818 60.8458 194.861 60.6332 194.864 60.4178C194.868 60.2024 194.831 59.9885 194.756 59.7882C194.681 59.5879 194.57 59.4053 194.429 59.2507C194.287 59.0961 194.119 58.9726 193.932 58.8873C193.746 58.802 193.545 58.7565 193.342 58.7535C193.325 58.7532 193.308 58.7532 193.292 58.7535H120.527Z" fill="#E6E6E6"/>
<path d="M120.527 43.8459C120.122 43.8531 119.736 44.0287 119.452 44.335C119.168 44.6413 119.009 45.0537 119.009 45.4833C119.009 45.9129 119.168 46.3253 119.452 46.6316C119.736 46.9379 120.122 47.1135 120.527 47.1206H141.34C141.543 47.1247 141.745 47.0863 141.934 47.0075C142.123 46.9287 142.296 46.8112 142.442 46.6616C142.588 46.512 142.705 46.3333 142.786 46.1357C142.866 45.9382 142.91 45.7256 142.913 45.5102C142.916 45.2949 142.88 45.0809 142.805 44.8806C142.73 44.6803 142.619 44.4977 142.478 44.3431C142.336 44.1885 142.167 44.065 141.981 43.9797C141.795 43.8944 141.594 43.8489 141.391 43.8459C141.374 43.8456 141.357 43.8456 141.34 43.8459H120.527Z" fill="#E6E6E6"/>
<path d="M120.527 74.1129C120.122 74.12 119.736 74.2957 119.452 74.602C119.168 74.9083 119.009 75.3207 119.009 75.7503C119.009 76.1799 119.168 76.5923 119.452 76.8985C119.736 77.2048 120.122 77.3805 120.527 77.3876H193.292C193.7 77.3936 194.094 77.2275 194.388 76.9255C194.681 76.6236 194.85 76.2106 194.856 75.7771C194.863 75.3435 194.707 74.9249 194.424 74.6129C194.14 74.3009 193.751 74.1211 193.342 74.1129C193.325 74.1126 193.308 74.1126 193.292 74.1129H120.527Z" fill="#E6E6E6"/>
<path d="M207.084 133.275H107.084C105.134 133.275 103.554 132.081 103.552 130.609V107.551C103.554 106.08 105.134 104.886 107.084 104.886H207.084C209.034 104.886 210.614 106.08 210.616 107.551V130.609C210.614 132.08 209.034 133.273 207.084 133.275Z" fill="#E6E6E6"/>
<path d="M139.377 189.291H39.3766C37.4272 189.291 35.8473 188.097 35.8452 186.626V163.568C35.8473 162.097 37.4272 160.903 39.3766 160.903H139.377C141.327 160.903 142.907 162.097 142.909 163.568V186.626C142.907 188.097 141.327 189.289 139.377 189.291Z" fill="#E6E6E6"/>
<path d="M109.211 201.993H9.21011C7.26066 201.993 5.68084 200.799 5.67871 199.328V176.27C5.68084 174.799 7.26066 173.605 9.21011 173.605H109.211C111.16 173.605 112.74 174.799 112.742 176.27V199.328C112.741 200.799 111.16 201.992 109.211 201.993ZM9.21011 174.67C8.04036 174.67 7.09246 175.386 7.09118 176.269V199.327C7.09118 200.21 8.04036 200.925 9.21011 200.926H109.211C110.381 200.926 111.329 200.21 111.33 199.327V176.27C111.33 175.387 110.381 174.672 109.211 174.671L9.21011 174.67Z" fill="#3F3D56"/>
<path d="M145.207 138.825C149.676 138.825 153.298 134.983 153.298 130.242C153.298 125.502 149.676 121.659 145.207 121.659C140.739 121.659 137.117 125.502 137.117 130.242C137.117 134.983 140.739 138.825 145.207 138.825Z" fill="#095D6A"/>
<path d="M23.8466 196.197C28.315 196.197 31.9374 192.355 31.9374 187.614C31.9374 182.874 28.315 179.031 23.8466 179.031C19.3782 179.031 15.7559 182.874 15.7559 187.614C15.7559 192.355 19.3782 196.197 23.8466 196.197Z" fill="#095D6A"/>
<path d="M162.684 124.088C162.279 124.095 161.893 124.27 161.609 124.577C161.325 124.883 161.166 125.295 161.166 125.725C161.166 126.154 161.325 126.567 161.609 126.873C161.893 127.179 162.279 127.355 162.684 127.362H220.544C220.953 127.368 221.347 127.202 221.641 126.9C221.934 126.598 222.102 126.185 222.109 125.752C222.116 125.318 221.96 124.899 221.676 124.588C221.392 124.276 221.004 124.096 220.595 124.088C220.578 124.087 220.561 124.087 220.544 124.088H162.684Z" fill="#3F3D56"/>
<path d="M162.684 133.122C162.279 133.13 161.893 133.305 161.609 133.611C161.325 133.918 161.166 134.33 161.166 134.76C161.166 135.189 161.325 135.602 161.609 135.908C161.893 136.214 162.279 136.39 162.684 136.397H220.544C220.953 136.403 221.347 136.237 221.641 135.935C221.934 135.633 222.102 135.22 222.109 134.787C222.116 134.353 221.96 133.934 221.676 133.622C221.392 133.31 221.004 133.131 220.595 133.122C220.578 133.122 220.561 133.122 220.544 133.122H162.684Z" fill="#3F3D56"/>
<path d="M41.3222 181.459C40.9173 181.466 40.5313 181.642 40.2473 181.948C39.9633 182.255 39.8042 182.667 39.8042 183.097C39.8042 183.526 39.9633 183.939 40.2473 184.245C40.5313 184.551 40.9173 184.727 41.3222 184.734H99.183C99.5917 184.74 99.9859 184.574 100.279 184.272C100.573 183.97 100.741 183.557 100.748 183.123C100.755 182.69 100.599 182.271 100.315 181.959C100.031 181.647 99.6423 181.468 99.2336 181.459C99.2167 181.459 99.1999 181.459 99.183 181.459H41.3222Z" fill="#3F3D56"/>
<path d="M41.3222 190.494C40.9173 190.502 40.5313 190.677 40.2473 190.983C39.9633 191.29 39.8042 191.702 39.8042 192.132C39.8042 192.561 39.9633 192.974 40.2473 193.28C40.5313 193.586 40.9173 193.762 41.3222 193.769H99.183C99.5917 193.775 99.9859 193.609 100.279 193.307C100.573 193.005 100.741 192.592 100.748 192.159C100.755 191.725 100.599 191.306 100.315 190.994C100.031 190.682 99.6423 190.503 99.2336 190.494C99.2167 190.494 99.1999 190.494 99.183 190.494H41.3222Z" fill="#3F3D56"/>
<path d="M242.285 234.595C252.414 234.595 260.624 225.884 260.624 215.139C260.624 204.394 252.414 195.684 242.285 195.684C232.157 195.684 223.946 204.394 223.946 215.139C223.946 225.884 232.157 234.595 242.285 234.595Z" fill="#2F2E41"/>
<path d="M250.642 230.408H245.071V240.998H250.642V230.408Z" fill="#2F2E41"/>
<path d="M239.499 230.408H233.928V240.998H239.499V230.408Z" fill="#2F2E41"/>
<path d="M245.999 242.968C248.563 242.968 250.642 242.141 250.642 241.121C250.642 240.101 248.563 239.274 245.999 239.274C243.435 239.274 241.356 240.101 241.356 241.121C241.356 242.141 243.435 242.968 245.999 242.968Z" fill="#2F2E41"/>
<path d="M234.856 242.722C237.42 242.722 239.499 241.895 239.499 240.875C239.499 239.855 237.42 239.028 234.856 239.028C232.292 239.028 230.213 239.855 230.213 240.875C230.213 241.895 232.292 242.722 234.856 242.722Z" fill="#2F2E41"/>
<path d="M241.821 216.863C245.282 216.863 248.088 213.886 248.088 210.214C248.088 206.541 245.282 203.564 241.821 203.564C238.359 203.564 235.553 206.541 235.553 210.214C235.553 213.886 238.359 216.863 241.821 216.863Z" fill="white"/>
<path d="M241.821 212.43C242.975 212.43 243.91 211.438 243.91 210.214C243.91 208.99 242.975 207.997 241.821 207.997C240.667 207.997 239.731 208.99 239.731 210.214C239.731 211.438 240.667 212.43 241.821 212.43Z" fill="#3F3D56"/>
<path d="M260.075 197.046C261.556 190.011 256.822 182.902 249.502 181.168C242.182 179.434 235.048 183.732 233.567 190.767C232.086 197.802 236.937 200.397 244.257 202.131C251.577 203.865 258.594 204.082 260.075 197.046Z" fill="#E6E6E6"/>
<path d="M46.973 85.953C46.9776 88.9361 46.332 91.8798 45.0866 94.5543C44.946 94.8615 44.797 95.1596 44.6395 95.4578H12.6299C12.4723 95.1596 12.3233 94.8615 12.1828 94.5543C10.9607 91.9256 10.3142 89.038 10.2916 86.1071C10.269 83.1762 10.8709 80.2777 12.0523 77.6282C13.2336 74.9786 14.964 72.6464 17.1141 70.8058C19.2642 68.9652 21.7785 67.6636 24.4692 66.9984C27.16 66.3331 29.9576 66.3214 32.6532 66.964C35.3489 67.6066 37.8728 68.887 40.0366 70.7095C42.2004 72.5321 43.9481 74.8496 45.1492 77.4892C46.3503 80.1287 46.9737 83.022 46.973 85.953V85.953Z" fill="#2F2E41"/>
<path d="M29.0994 87.6748C32.5611 87.6748 35.3673 84.6978 35.3673 81.0255C35.3673 77.3531 32.5611 74.3761 29.0994 74.3761C25.6378 74.3761 22.8315 77.3531 22.8315 81.0255C22.8315 84.6978 25.6378 87.6748 29.0994 87.6748Z" fill="white"/>
<path d="M29.0996 83.242C30.2534 83.242 31.1888 82.2496 31.1888 81.0255C31.1888 79.8014 30.2534 78.8091 29.0996 78.8091C27.9457 78.8091 27.0103 79.8014 27.0103 81.0255C27.0103 82.2496 27.9457 83.242 29.0996 83.242Z" fill="#3F3D56"/>
<path d="M10.8453 67.8579C9.36453 60.8224 14.0981 53.7135 21.4181 51.9795C28.7381 50.2455 35.8725 54.5432 37.3533 61.5786C38.8341 68.614 33.9829 71.2088 26.6629 72.9428C19.343 74.6767 12.3262 74.8933 10.8453 67.8579Z" fill="#095D6A"/>
<path d="M54.9319 34.9237H2.12914C1.56452 34.9239 1.02309 35.162 0.623838 35.5855C0.22459 36.0091 0.000204282 36.5835 0 37.1824V93.1991C0.000204282 93.7981 0.22459 94.3724 0.623838 94.796C1.02309 95.2195 1.56452 95.4576 2.12914 95.4578H54.9319C55.4965 95.4576 56.038 95.2195 56.4372 94.796C56.8365 94.3724 57.0608 93.7981 57.0611 93.1991V37.1824C57.0608 36.5835 56.8365 36.0091 56.4372 35.5855C56.038 35.162 55.4965 34.9239 54.9319 34.9237V34.9237ZM56.2094 93.1991C56.2084 93.5582 56.0735 93.9023 55.8341 94.1562C55.5948 94.4101 55.2704 94.5533 54.9319 94.5543H2.12914C1.79064 94.5533 1.46628 94.4101 1.22692 94.1562C0.987561 93.9023 0.852649 93.5582 0.851658 93.1991V37.1824C0.852645 36.8233 0.98756 36.4792 1.22692 36.2253C1.46628 35.9714 1.79064 35.8282 2.12914 35.8272H54.9319C55.2704 35.8282 55.5948 35.9714 55.8341 36.2253C56.0735 36.4792 56.2084 36.8233 56.2094 37.1824V93.1991Z" fill="#3F3D56"/>
<path d="M112.889 201.538C114.698 196.519 114.959 191.963 113.474 191.361C111.989 190.759 109.32 194.339 107.512 199.357C105.704 204.376 105.442 208.932 106.927 209.534C108.412 210.136 111.081 206.556 112.889 201.538Z" fill="#2F2E41"/>
<path d="M111.352 218.256C112.975 207.65 106.185 197.656 96.1873 195.935C86.1895 194.214 76.7695 201.417 75.1471 212.023C73.5247 222.629 80.3143 232.623 90.312 234.344C100.31 236.065 109.73 228.862 111.352 218.256Z" fill="#2F2E41"/>
<path d="M90.464 230.408H84.8926V240.998H90.464V230.408Z" fill="#2F2E41"/>
<path d="M101.607 230.408H96.0352V240.998H101.607V230.408Z" fill="#2F2E41"/>
<path d="M89.5354 242.968C92.0996 242.968 94.1783 242.141 94.1783 241.121C94.1783 240.101 92.0996 239.274 89.5354 239.274C86.9713 239.274 84.8926 240.101 84.8926 241.121C84.8926 242.141 86.9713 242.968 89.5354 242.968Z" fill="#2F2E41"/>
<path d="M100.678 242.722C103.242 242.722 105.321 241.895 105.321 240.875C105.321 239.855 103.242 239.028 100.678 239.028C98.1138 239.028 96.0352 239.855 96.0352 240.875C96.0352 241.895 98.1138 242.722 100.678 242.722Z" fill="#2F2E41"/>
<path d="M75.4601 197.046C73.9793 190.011 78.7129 182.902 86.0328 181.168C93.3528 179.434 100.487 183.732 101.968 190.767C103.449 197.802 98.5977 200.397 91.2777 202.131C83.9577 203.865 76.9409 204.082 75.4601 197.046Z" fill="#095D6A"/>
<path d="M80.8784 210.281C81.5596 208.757 78.4026 205.655 73.8269 203.353C69.2512 201.051 64.9896 200.42 64.3083 201.943C63.627 203.467 66.7841 206.569 71.3598 208.871C75.9355 211.174 80.1971 211.805 80.8784 210.281Z" fill="#2F2E41"/>
<path d="M247.819 174.809C257.699 174.809 265.709 166.312 265.709 155.83C265.709 145.349 257.699 136.851 247.819 136.851C237.938 136.851 229.929 145.349 229.929 155.83C229.929 166.312 237.938 174.809 247.819 174.809Z" fill="#2F2E41"/>
<path d="M256.036 170.685L250.602 170.712L250.647 181.042L256.082 181.015L256.036 170.685Z" fill="#2F2E41"/>
<path d="M245.167 170.738L239.732 170.765L239.777 181.095L245.212 181.069L245.167 170.738Z" fill="#2F2E41"/>
<path d="M242.223 183.725C244.383 182.387 245.751 180.606 245.279 179.747C244.806 178.887 242.671 179.275 240.511 180.612C238.35 181.95 236.982 183.731 237.455 184.59C237.928 185.45 240.063 185.062 242.223 183.725Z" fill="#2F2E41"/>
<path d="M252.866 183.672C255.026 182.335 256.395 180.554 255.922 179.694C255.449 178.835 253.314 179.222 251.154 180.56C248.994 181.897 247.625 183.678 248.098 184.538C248.571 185.397 250.706 185.01 252.866 183.672Z" fill="#2F2E41"/>
<path d="M247.345 157.514C250.722 157.514 253.459 154.61 253.459 151.028C253.459 147.445 250.722 144.541 247.345 144.541C243.968 144.541 241.23 147.445 241.23 151.028C241.23 154.61 243.968 157.514 247.345 157.514Z" fill="white"/>
<path d="M245.251 150.438C246.376 150.438 247.289 149.47 247.289 148.275C247.289 147.081 246.376 146.113 245.251 146.113C244.125 146.113 243.212 147.081 243.212 148.275C243.212 149.47 244.125 150.438 245.251 150.438Z" fill="#3F3D56"/>
<path d="M265.095 138.095C266.51 131.225 261.862 124.313 254.714 122.657C247.566 121.001 240.625 125.227 239.21 132.097C237.796 138.967 242.539 141.475 249.687 143.132C256.835 144.788 263.681 144.965 265.095 138.095Z" fill="#095D6A"/>
<path d="M237.375 149.915C237.979 148.399 234.779 145.517 230.228 143.477C225.678 141.438 221.499 141.013 220.896 142.528C220.292 144.044 223.492 146.926 228.042 148.966C232.593 151.005 236.772 151.43 237.375 149.915Z" fill="#2F2E41"/>
<path d="M273.927 165.644C274.53 164.129 271.331 161.247 266.78 159.207C262.229 157.167 258.051 156.742 257.447 158.258C256.844 159.773 260.044 162.656 264.594 164.695C269.145 166.735 273.323 167.16 273.927 165.644Z" fill="#2F2E41"/>
<path d="M251.434 164.101C251.438 164.669 251.335 165.232 251.134 165.759C250.932 166.285 250.634 166.764 250.258 167.168C249.881 167.572 249.433 167.894 248.94 168.114C248.446 168.335 247.917 168.45 247.381 168.453C246.845 168.456 246.314 168.347 245.819 168.133C245.323 167.918 244.871 167.602 244.491 167.203C244.11 166.803 243.807 166.328 243.6 165.804C243.392 165.28 243.284 164.718 243.282 164.15L243.282 164.141C243.271 161.753 245.094 161.249 247.345 161.238C249.597 161.227 251.424 161.713 251.434 164.101Z" fill="white"/>
<path d="M233.1 144.547H133.099C131.15 144.547 129.57 143.353 129.568 141.882V118.824C129.57 117.352 131.15 116.158 133.099 116.158H233.1C235.05 116.158 236.629 117.352 236.631 118.824V141.881C236.63 143.352 235.05 144.545 233.1 144.547ZM133.099 117.223C131.93 117.223 130.982 117.94 130.98 118.823V141.88C130.98 142.763 131.93 143.479 133.099 143.479H233.1C234.27 143.479 235.218 142.763 235.219 141.88V118.824C235.219 117.941 234.27 117.225 233.1 117.224L133.099 117.223Z" fill="#3F3D56"/>
</g>
<defs>
<clipPath id="clip0">
<rect width="274" height="245" fill="white" transform="translate(0 0.13916)"/>
</clipPath>
</defs>
</svg>
