<svg width="786" height="627" viewBox="0 0 786 627" fill="none" xmlns="http://www.w3.org/2000/svg">
<path opacity="0.1" d="M0.104493 235.064C-0.849461 202.544 4.40158 164.283 29.445 148.925C41.8636 141.302 56.6885 141.19 70.0955 136.197C100.175 125.024 118.91 91.8852 137.044 62.2353C155.178 32.5854 179.027 1.84403 210.584 0.082222C254.062 -2.34993 283.635 49.8339 323.71 69.2911C399.682 106.152 488.838 17.9925 565.868 51.8707C577.04 56.7866 587.731 64.5729 594.014 76.2524C600.201 87.76 601.594 101.975 607.627 113.594C626.689 150.308 677.772 142.058 704.93 171.321C714.272 181.385 719.892 195.05 725.307 208.371L744.162 254.779C747.695 263.485 751.296 272.457 751.717 282.049C752.456 298.885 743.294 314.964 744.919 331.714C747.445 357.875 773.915 372.193 782.303 396.695C786.257 408.245 785.836 421.094 784.882 433.461C782.909 459.236 778.885 484.813 772.85 509.949C766.731 535.37 757.561 561.686 738.757 576.897C725.504 587.614 709.064 591.508 693.096 594.722C601.817 613.242 509.009 619.456 416.406 624.277C335.621 628.488 252.954 631.41 175.555 604.407C140.834 592.324 106.036 572.695 85.9861 538.052C72.2354 514.306 69.6572 488.455 63.4608 461.71C58.6738 441.032 44.5536 425.064 36.5008 405.693C14.1199 351.495 1.78697 293.677 0.104493 235.064Z" fill="#FBBC58"/>
<path opacity="0.1" d="M532.849 201.1C565.599 201.1 592.149 174.551 592.149 141.8C592.149 109.05 565.599 82.5004 532.849 82.5004C500.099 82.5004 473.549 109.05 473.549 141.8C473.549 174.551 500.099 201.1 532.849 201.1Z" fill="#FBBC58"/>
<path opacity="0.1" d="M291.301 111.36H286.222C287.165 111.36 288.07 110.985 288.738 110.317C289.405 109.65 289.78 108.745 289.78 107.802C289.78 106.858 289.405 105.953 288.738 105.286C288.07 104.618 287.165 104.244 286.222 104.244H245.073C244.129 104.244 243.224 104.618 242.557 105.286C241.89 105.953 241.515 106.858 241.515 107.802C241.515 108.745 241.89 109.65 242.557 110.317C243.224 110.985 244.129 111.36 245.073 111.36H250.152C249.208 111.36 248.303 111.734 247.636 112.402C246.969 113.069 246.594 113.974 246.594 114.918C246.594 115.861 246.969 116.766 247.636 117.433C248.303 118.101 249.208 118.476 250.152 118.476H243.036C242.092 118.476 241.187 118.85 240.52 119.518C239.853 120.185 239.478 121.09 239.478 122.034C239.478 122.977 239.853 123.882 240.52 124.549C241.187 125.217 242.092 125.592 243.036 125.592H284.185C285.129 125.592 286.034 125.217 286.701 124.549C287.368 123.882 287.743 122.977 287.743 122.034C287.743 121.09 287.368 120.185 286.701 119.518C286.034 118.85 285.129 118.476 284.185 118.476H291.301C292.245 118.476 293.15 118.101 293.817 117.433C294.484 116.766 294.859 115.861 294.859 114.918C294.859 113.974 294.484 113.069 293.817 112.402C293.15 111.734 292.245 111.36 291.301 111.36Z" fill="#FBBC58"/>
<path opacity="0.1" d="M606.707 183.551H601.628C602.572 183.551 603.477 183.176 604.144 182.509C604.811 181.841 605.186 180.936 605.186 179.993C605.186 179.049 604.811 178.144 604.144 177.477C603.477 176.81 602.572 176.435 601.628 176.435H560.479C559.535 176.435 558.63 176.81 557.963 177.477C557.296 178.144 556.921 179.049 556.921 179.993C556.921 180.936 557.296 181.841 557.963 182.509C558.63 183.176 559.535 183.551 560.479 183.551H565.558C564.615 183.551 563.71 183.926 563.042 184.593C562.375 185.26 562 186.165 562 187.109C562 188.052 562.375 188.957 563.042 189.625C563.71 190.292 564.615 190.667 565.558 190.667H558.442C557.499 190.667 556.594 191.041 555.926 191.709C555.259 192.376 554.884 193.281 554.884 194.225C554.884 195.168 555.259 196.073 555.926 196.741C556.594 197.408 557.499 197.783 558.442 197.783H599.591C600.535 197.783 601.44 197.408 602.107 196.741C602.774 196.073 603.149 195.168 603.149 194.225C603.149 193.281 602.774 192.376 602.107 191.709C601.44 191.041 600.535 190.667 599.591 190.667H606.707C607.651 190.667 608.556 190.292 609.223 189.625C609.89 188.957 610.265 188.052 610.265 187.109C610.265 186.165 609.89 185.26 609.223 184.593C608.556 183.926 607.651 183.551 606.707 183.551Z" fill="#FBBC58"/>
<path opacity="0.1" d="M338.569 205.036H333.49C334.434 205.036 335.339 204.661 336.006 203.994C336.673 203.327 337.048 202.422 337.048 201.478C337.048 200.534 336.673 199.629 336.006 198.962C335.339 198.295 334.434 197.92 333.49 197.92H292.341C291.397 197.92 290.492 198.295 289.825 198.962C289.158 199.629 288.783 200.534 288.783 201.478C288.783 202.422 289.158 203.327 289.825 203.994C290.492 204.661 291.397 205.036 292.341 205.036H297.42C296.477 205.036 295.572 205.411 294.904 206.078C294.237 206.745 293.862 207.65 293.862 208.594C293.862 209.538 294.237 210.443 294.904 211.11C295.572 211.777 296.477 212.152 297.42 212.152H290.304C289.361 212.152 288.456 212.527 287.788 213.194C287.121 213.861 286.746 214.766 286.746 215.71C286.746 216.654 287.121 217.559 287.788 218.226C288.456 218.893 289.361 219.268 290.304 219.268H331.453C332.397 219.268 333.302 218.893 333.969 218.226C334.636 217.559 335.011 216.654 335.011 215.71C335.011 214.766 334.636 213.861 333.969 213.194C333.302 212.527 332.397 212.152 331.453 212.152H338.569C339.513 212.152 340.418 211.777 341.085 211.11C341.752 210.443 342.127 209.538 342.127 208.594C342.127 207.65 341.752 206.745 341.085 206.078C340.418 205.411 339.513 205.036 338.569 205.036Z" fill="#FBBC58"/>
<path d="M354.147 251.864C354.147 251.864 409.436 254.529 412.767 273.846C416.097 293.164 348.152 275.845 348.152 275.845L354.147 251.864Z" fill="#A0616A"/>
<path d="M720.853 136.29H650.909V137.622H720.853V136.29Z" fill="#3F3D56"/>
<path d="M596.286 136.29H374.464V137.622H596.286V136.29Z" fill="#3F3D56"/>
<path d="M647.578 296.828H122V497.334H647.578V296.828Z" fill="#3F3D56"/>
<path d="M513.02 230.881H257.225V498H513.02V230.881Z" fill="#D0CDE1"/>
<path d="M473.052 289.501H283.87V316.146H473.052V289.501Z" fill="#FBBC58"/>
<path d="M440.29 360.111H316.393V373.433H440.29V360.111Z" fill="#FBBC58"/>
<path d="M440.529 383.425H316.632V396.748H440.529V383.425Z" fill="#FBBC58"/>
<path d="M378.82 406.74H316.871V420.063H378.82V406.74Z" fill="#FBBC58"/>
<path d="M476.382 474.019H447.739V487.342H476.382V474.019Z" fill="#FBBC58"/>
<path d="M374.464 164.268C389.548 164.268 401.775 152.04 401.775 136.956C401.775 121.873 389.548 109.645 374.464 109.645C359.38 109.645 347.153 121.873 347.153 136.956C347.153 152.04 359.38 164.268 374.464 164.268Z" fill="#D0CDE1"/>
<path d="M499.031 164.268C514.115 164.268 526.342 152.04 526.342 136.956C526.342 121.873 514.115 109.645 499.031 109.645C483.947 109.645 471.719 121.873 471.719 136.956C471.719 152.04 483.947 164.268 499.031 164.268Z" fill="#3F3D56"/>
<path d="M623.598 164.934C618.064 164.934 612.655 163.293 608.054 160.219C603.453 157.145 599.867 152.775 597.75 147.663C595.632 142.551 595.078 136.925 596.158 131.498C597.237 126.071 599.902 121.086 603.815 117.173C607.727 113.26 612.712 110.596 618.14 109.516C623.567 108.437 629.192 108.991 634.304 111.108C639.416 113.226 643.786 116.812 646.86 121.413C649.934 126.014 651.575 131.423 651.575 136.956C651.567 144.374 648.617 151.485 643.372 156.73C638.127 161.975 631.015 164.926 623.598 164.934ZM623.598 110.311C618.328 110.311 613.176 111.874 608.794 114.802C604.413 117.729 600.997 121.891 598.981 126.76C596.964 131.628 596.436 136.986 597.464 142.155C598.492 147.323 601.03 152.071 604.757 155.797C608.483 159.524 613.231 162.062 618.399 163.09C623.568 164.118 628.926 163.59 633.794 161.573C638.663 159.557 642.825 156.141 645.752 151.76C648.68 147.378 650.243 142.226 650.243 136.956C650.235 129.892 647.425 123.119 642.43 118.124C637.435 113.129 630.662 110.319 623.598 110.311Z" fill="#3F3D56"/>
<path d="M748.165 164.934C742.631 164.934 737.222 163.293 732.621 160.219C728.02 157.145 724.434 152.775 722.317 147.663C720.199 142.551 719.645 136.925 720.725 131.498C721.804 126.071 724.469 121.086 728.381 117.173C732.294 113.26 737.279 110.596 742.706 109.516C748.134 108.437 753.759 108.991 758.871 111.108C763.983 113.226 768.353 116.812 771.427 121.413C774.501 126.014 776.142 131.423 776.142 136.956C776.134 144.374 773.183 151.485 767.938 156.73C762.693 161.975 755.582 164.926 748.165 164.934ZM748.165 110.311C742.895 110.311 737.743 111.874 733.361 114.802C728.979 117.729 725.564 121.891 723.548 126.76C721.531 131.628 721.003 136.986 722.031 142.155C723.059 147.323 725.597 152.071 729.324 155.797C733.05 159.524 737.798 162.062 742.966 163.09C748.135 164.118 753.492 163.59 758.361 161.573C763.23 159.557 767.391 156.141 770.319 151.76C773.247 147.378 774.81 142.226 774.81 136.956C774.802 129.892 771.992 123.119 766.997 118.124C762.002 113.129 755.229 110.319 748.165 110.311Z" fill="#3F3D56"/>
<path d="M370.699 148.575L358.864 132.795L363.127 129.597L371.276 140.462L408.738 103L412.506 106.768L370.699 148.575Z" fill="#3F3D56"/>
<path d="M582.321 502.274C582.321 502.274 540.527 527.488 617.545 566.308C617.545 566.308 634.514 534.792 615.753 509.103C612.111 504.097 606.759 500.6 600.712 499.274C594.664 497.948 588.341 498.886 582.939 501.91L582.321 502.274Z" fill="#FBBC58"/>
<path d="M582.79 501.743C582.79 501.743 618.558 529.107 617.545 566.308" stroke="#535461" stroke-miterlimit="10"/>
<path d="M615.252 566.148C615.252 566.148 602.158 521.654 617.724 488.957C624.335 475.271 626.328 459.81 623.403 444.896C621.961 437.827 619.874 430.906 617.168 424.218" stroke="#535461" stroke-width="2" stroke-miterlimit="10"/>
<path d="M626.815 403.541C626.815 408.992 616.927 424.793 616.927 424.793C616.927 424.793 607.039 408.992 607.039 403.541C606.95 402.191 607.139 400.836 607.594 399.561C608.049 398.287 608.762 397.119 609.686 396.131C610.611 395.143 611.729 394.355 612.971 393.816C614.213 393.278 615.552 393 616.905 393C618.259 393 619.598 393.278 620.84 393.816C622.081 394.355 623.199 395.143 624.124 396.131C625.049 397.119 625.761 398.287 626.217 399.561C626.672 400.836 626.861 402.191 626.771 403.541H626.815Z" fill="#FBBC58"/>
<path d="M643.135 433.723C640.175 438.296 623.304 446.2 623.304 446.2C623.304 446.2 623.613 427.574 626.573 423.001C628.073 420.988 630.283 419.621 632.753 419.177C635.224 418.733 637.771 419.245 639.878 420.61C641.985 421.975 643.494 424.09 644.098 426.526C644.703 428.962 644.359 431.537 643.135 433.729V433.723Z" fill="#FBBC58"/>
<path d="M642.424 485.305C637.561 487.777 619.01 486.065 619.01 486.065C619.01 486.065 628.668 470.14 633.538 467.687C635.849 466.705 638.446 466.64 640.803 467.503C643.16 468.366 645.101 470.093 646.231 472.335C647.361 474.576 647.597 477.163 646.89 479.572C646.183 481.98 644.587 484.03 642.424 485.305Z" fill="#FBBC58"/>
<path d="M633.099 524.212C628.718 527.45 610.148 528.915 610.148 528.915C610.148 528.915 616.982 511.612 621.364 508.343C623.475 506.977 626.028 506.467 628.502 506.916C630.976 507.366 633.186 508.741 634.682 510.762C636.178 512.783 636.848 515.299 636.555 517.796C636.262 520.294 635.028 522.586 633.105 524.206L633.099 524.212Z" fill="#FBBC58"/>
<path d="M602.59 447.256C606.496 451.051 624.707 454.987 624.707 454.987C624.707 454.987 620.246 436.899 616.34 433.105C615.434 432.099 614.331 431.29 613.099 430.728C611.868 430.166 610.534 429.862 609.18 429.837C607.827 429.811 606.482 430.064 605.23 430.579C603.978 431.094 602.845 431.861 601.902 432.832C600.959 433.803 600.225 434.958 599.746 436.224C599.267 437.49 599.053 438.841 599.117 440.194C599.182 441.546 599.523 442.871 600.121 444.085C600.718 445.3 601.559 446.38 602.59 447.256Z" fill="#FBBC58"/>
<path d="M592.258 492.894C597.121 495.365 615.673 493.654 615.673 493.654C615.673 493.654 606.008 477.729 601.138 475.275C599.972 474.588 598.678 474.147 597.336 473.981C595.993 473.814 594.63 473.924 593.332 474.305C592.034 474.686 590.827 475.33 589.788 476.196C588.748 477.062 587.897 478.132 587.288 479.34C586.679 480.548 586.324 481.868 586.245 483.219C586.167 484.57 586.366 485.922 586.832 487.193C587.297 488.463 588.018 489.625 588.95 490.605C589.883 491.586 591.006 492.365 592.251 492.894H592.258Z" fill="#FBBC58"/>
<path d="M588.302 538.63C592.684 541.868 611.254 543.332 611.254 543.332C611.254 543.332 604.419 526.029 600.038 522.76C599.005 521.89 597.804 521.24 596.51 520.852C595.217 520.463 593.857 520.344 592.515 520.501C591.174 520.659 589.878 521.089 588.71 521.767C587.541 522.444 586.523 523.354 585.72 524.439C584.916 525.525 584.343 526.764 584.037 528.08C583.731 529.395 583.697 530.76 583.939 532.089C584.18 533.418 584.691 534.683 585.441 535.807C586.19 536.931 587.162 537.89 588.296 538.623L588.302 538.63Z" fill="#FBBC58"/>
<path opacity="0.25" d="M626.815 403.541C626.815 408.992 616.927 424.793 616.927 424.793C616.927 424.793 607.039 408.992 607.039 403.541C606.95 402.191 607.139 400.836 607.594 399.561C608.049 398.287 608.762 397.119 609.686 396.131C610.611 395.143 611.729 394.355 612.971 393.816C614.213 393.278 615.552 393 616.905 393C618.259 393 619.598 393.278 620.84 393.816C622.081 394.355 623.199 395.143 624.124 396.131C625.049 397.119 625.761 398.287 626.217 399.561C626.672 400.836 626.861 402.191 626.771 403.541H626.815Z" fill="black"/>
<path opacity="0.25" d="M643.135 433.723C640.175 438.296 623.304 446.2 623.304 446.2C623.304 446.2 623.613 427.574 626.573 423.001C628.073 420.988 630.283 419.621 632.753 419.177C635.224 418.733 637.771 419.245 639.878 420.61C641.985 421.975 643.494 424.09 644.098 426.526C644.703 428.962 644.359 431.537 643.135 433.729V433.723Z" fill="black"/>
<path opacity="0.25" d="M642.424 485.305C637.561 487.777 619.01 486.065 619.01 486.065C619.01 486.065 628.668 470.14 633.538 467.687C635.849 466.705 638.446 466.64 640.803 467.503C643.16 468.366 645.101 470.093 646.231 472.335C647.361 474.576 647.597 477.163 646.89 479.572C646.183 481.98 644.587 484.03 642.424 485.305Z" fill="black"/>
<path opacity="0.25" d="M633.099 524.212C628.718 527.45 610.148 528.915 610.148 528.915C610.148 528.915 616.982 511.612 621.364 508.343C623.475 506.977 626.028 506.467 628.502 506.916C630.976 507.366 633.186 508.741 634.682 510.762C636.178 512.783 636.848 515.299 636.555 517.796C636.262 520.294 635.028 522.586 633.105 524.206L633.099 524.212Z" fill="black"/>
<path opacity="0.25" d="M602.59 447.256C606.496 451.051 624.707 454.987 624.707 454.987C624.707 454.987 620.246 436.899 616.34 433.105C615.434 432.099 614.331 431.29 613.099 430.728C611.868 430.166 610.534 429.862 609.18 429.837C607.827 429.811 606.482 430.064 605.23 430.579C603.978 431.094 602.845 431.861 601.902 432.832C600.959 433.803 600.225 434.958 599.746 436.224C599.267 437.49 599.053 438.841 599.117 440.194C599.182 441.546 599.523 442.871 600.121 444.085C600.718 445.3 601.559 446.38 602.59 447.256Z" fill="black"/>
<path opacity="0.25" d="M592.258 492.894C597.121 495.365 615.673 493.654 615.673 493.654C615.673 493.654 606.008 477.729 601.138 475.275C599.972 474.588 598.678 474.147 597.336 473.981C595.993 473.814 594.63 473.924 593.332 474.305C592.034 474.686 590.827 475.33 589.788 476.196C588.748 477.062 587.897 478.132 587.288 479.34C586.679 480.548 586.324 481.868 586.245 483.219C586.167 484.57 586.366 485.922 586.832 487.193C587.297 488.463 588.018 489.625 588.95 490.605C589.883 491.586 591.006 492.365 592.251 492.894H592.258Z" fill="black"/>
<path opacity="0.25" d="M588.302 538.63C592.684 541.868 611.254 543.332 611.254 543.332C611.254 543.332 604.419 526.029 600.038 522.76C599.005 521.89 597.804 521.24 596.51 520.852C595.217 520.463 593.857 520.344 592.515 520.501C591.174 520.659 589.878 521.089 588.71 521.767C587.541 522.444 586.523 523.354 585.72 524.439C584.916 525.525 584.343 526.764 584.037 528.08C583.731 529.395 583.697 530.76 583.939 532.089C584.18 533.418 584.691 534.683 585.441 535.807C586.19 536.931 587.162 537.89 588.296 538.623L588.302 538.63Z" fill="black"/>
<path d="M652.973 581.208C652.973 581.208 639.878 536.714 655.445 504.017C662.056 490.331 664.049 474.87 661.124 459.956C659.682 452.887 657.595 445.966 654.889 439.278" stroke="#535461" stroke-width="2" stroke-miterlimit="10"/>
<path d="M664.548 418.601C664.548 424.052 654.66 439.853 654.66 439.853C654.66 439.853 644.773 424.052 644.773 418.601C644.939 416.097 646.05 413.75 647.882 412.036C649.714 410.321 652.129 409.367 654.639 409.367C657.148 409.367 659.563 410.321 661.395 412.036C663.227 413.75 664.339 416.097 664.505 418.601H664.548Z" fill="#FBBC58"/>
<path d="M680.856 448.783C677.896 453.356 661.025 461.26 661.025 461.26C661.025 461.26 661.334 442.634 664.294 438.061C664.954 436.88 665.849 435.846 666.924 435.025C667.999 434.204 669.232 433.611 670.545 433.285C671.858 432.959 673.224 432.906 674.558 433.13C675.893 433.353 677.167 433.847 678.303 434.583C679.438 435.319 680.411 436.279 681.16 437.406C681.909 438.533 682.419 439.801 682.659 441.133C682.898 442.464 682.862 443.831 682.552 445.148C682.242 446.465 681.664 447.704 680.856 448.789V448.783Z" fill="#FBBC58"/>
<path d="M680.145 500.359C675.282 502.831 656.73 501.119 656.73 501.119C656.73 501.119 666.396 485.194 671.265 482.74C672.431 482.05 673.726 481.607 675.07 481.438C676.415 481.269 677.779 481.378 679.079 481.759C680.38 482.139 681.588 482.783 682.629 483.65C683.67 484.517 684.522 485.588 685.132 486.798C685.742 488.008 686.096 489.33 686.174 490.683C686.251 492.035 686.05 493.389 685.582 494.661C685.115 495.932 684.391 497.094 683.456 498.074C682.52 499.055 681.394 499.832 680.145 500.359Z" fill="#FBBC58"/>
<path d="M670.814 539.291C666.433 542.529 647.863 543.994 647.863 543.994C647.863 543.994 654.697 526.69 659.079 523.421C661.19 522.055 663.743 521.545 666.217 521.995C668.691 522.444 670.901 523.819 672.397 525.841C673.893 527.862 674.563 530.377 674.27 532.875C673.977 535.372 672.743 537.664 670.82 539.285L670.814 539.291Z" fill="#FBBC58"/>
<path d="M640.305 462.316C644.21 466.111 662.422 470.047 662.422 470.047C662.422 470.047 657.96 451.959 654.055 448.165C653.148 447.159 652.045 446.35 650.814 445.788C649.582 445.225 648.248 444.922 646.895 444.897C645.541 444.871 644.197 445.124 642.945 445.639C641.693 446.154 640.56 446.921 639.617 447.892C638.673 448.863 637.939 450.018 637.46 451.284C636.981 452.55 636.767 453.901 636.832 455.254C636.896 456.606 637.238 457.931 637.835 459.145C638.433 460.36 639.273 461.44 640.305 462.316Z" fill="#FBBC58"/>
<path d="M629.979 507.954C634.842 510.425 653.393 508.714 653.393 508.714C653.393 508.714 643.728 492.789 638.859 490.335C636.548 489.354 633.951 489.288 631.594 490.151C629.237 491.015 627.296 492.742 626.166 494.983C625.035 497.225 624.8 499.812 625.507 502.22C626.213 504.629 627.81 506.679 629.972 507.954H629.979Z" fill="#FBBC58"/>
<path d="M626.023 553.689C630.405 556.928 648.975 558.392 648.975 558.392C648.975 558.392 642.14 541.089 637.759 537.82C636.726 536.95 635.525 536.3 634.231 535.912C632.938 535.523 631.578 535.404 630.236 535.561C628.895 535.719 627.599 536.149 626.431 536.827C625.262 537.504 624.244 538.414 623.441 539.499C622.637 540.585 622.064 541.824 621.758 543.14C621.452 544.455 621.418 545.82 621.66 547.149C621.901 548.478 622.412 549.743 623.162 550.867C623.911 551.991 624.883 552.95 626.017 553.683L626.023 553.689Z" fill="#FBBC58"/>
</svg>
