<svg width="94" height="99" viewBox="0 0 94 99" fill="none" xmlns="http://www.w3.org/2000/svg">
<g filter="url(#filter0_dd)">
<circle cx="47" cy="49.2402" r="37" fill="#032328"/>
</g>
<g clip-path="url(#clip0)">
<path d="M47.004 33.2402H46.996C38.174 33.2402 31 40.4162 31 49.2402C31 52.7402 32.128 55.9842 34.046 58.6182L32.052 64.5622L38.202 62.5962C40.732 64.2722 43.75 65.2402 47.004 65.2402C55.826 65.2402 63 58.0622 63 49.2402C63 40.4182 55.826 33.2402 47.004 33.2402ZM56.314 55.8342C55.928 56.9242 54.396 57.8282 53.174 58.0922C52.338 58.2702 51.246 58.4122 47.57 56.8882C42.868 54.9402 39.84 50.1622 39.604 49.8522C39.378 49.5422 37.704 47.3222 37.704 45.0262C37.704 42.7302 38.87 41.6122 39.34 41.1322C39.726 40.7382 40.364 40.5582 40.976 40.5582C41.174 40.5582 41.352 40.5682 41.512 40.5762C41.982 40.5962 42.218 40.6242 42.528 41.3662C42.914 42.2962 43.854 44.5922 43.966 44.8282C44.08 45.0642 44.194 45.3842 44.034 45.6942C43.884 46.0142 43.752 46.1562 43.516 46.4282C43.28 46.7002 43.056 46.9082 42.82 47.2002C42.604 47.4542 42.36 47.7262 42.632 48.1962C42.904 48.6562 43.844 50.1902 45.228 51.4222C47.014 53.0122 48.462 53.5202 48.98 53.7362C49.366 53.8962 49.826 53.8582 50.108 53.5582C50.466 53.1722 50.908 52.5322 51.358 51.9022C51.678 51.4502 52.082 51.3942 52.506 51.5542C52.938 51.7042 55.224 52.8342 55.694 53.0682C56.164 53.3042 56.474 53.4162 56.588 53.6142C56.7 53.8122 56.7 54.7422 56.314 55.8342Z" fill="white"/>
</g>
<defs>
<filter id="filter0_dd" x="0" y="0.240234" width="94" height="98" filterUnits="userSpaceOnUse" color-interpolation-filters="sRGB">
<feFlood flood-opacity="0" result="BackgroundImageFix"/>
<feColorMatrix in="SourceAlpha" type="matrix" values="0 0 0 0 0 0 0 0 0 0 0 0 0 0 0 0 0 0 127 0"/>
<feOffset dx="2" dy="4"/>
<feGaussianBlur stdDeviation="4"/>
<feColorMatrix type="matrix" values="0 0 0 0 0 0 0 0 0 0 0 0 0 0 0 0 0 0 0.1 0"/>
<feBlend mode="normal" in2="BackgroundImageFix" result="effect1_dropShadow"/>
<feColorMatrix in="SourceAlpha" type="matrix" values="0 0 0 0 0 0 0 0 0 0 0 0 0 0 0 0 0 0 127 0"/>
<feOffset dx="-2" dy="-4"/>
<feGaussianBlur stdDeviation="4"/>
<feColorMatrix type="matrix" values="0 0 0 0 0.957357 0 0 0 0 0.957357 0 0 0 0 0.957357 0 0 0 0.1 0"/>
<feBlend mode="normal" in2="effect1_dropShadow" result="effect2_dropShadow"/>
<feBlend mode="normal" in="SourceGraphic" in2="effect2_dropShadow" result="shape"/>
</filter>
<clipPath id="clip0">
<rect width="32" height="32" fill="white" transform="translate(31 33.2402)"/>
</clipPath>
</defs>
</svg>
